<?xml version="1.0" encoding="UTF-8" standalone="no"?>
<!-- Created with Inkscape (http://www.inkscape.org/) -->

<svg
   version="1.1"
   xmlns:xlink="http://www.w3.org/1999/xlink"
   xmlns="http://www.w3.org/2000/svg"
   xmlns:svg="http://www.w3.org/2000/svg">
  <symbol viewBox="0 0 1200 1200" id="logoSymbol">
    <path
       d="M 370.75,1199.2487 2,1198.9973 V 599.99866 1 H 601.5 1201 v 215.0748 215.07479 l -6.9529,7.67521 c -26.4206,29.16506 -44.9355,60.36677 -61.2235,103.1752 -3.2436,8.525 -11.1338,26.17652 -17.5337,39.22559 -10.2459,20.89086 -11.8844,23.67231 -13.7131,23.27963 -2.2047,-0.47342 -20.6075,-1.39589 -29.2133,-1.46435 -4.8781,-0.0388 -5.1577,-0.18512 -5.5573,-2.90818 -0.4857,-3.30889 1.0201,-8.83542 3.1938,-11.72237 2.1914,-2.91047 6.6234,-5.66224 14.1636,-8.79414 3.665,-1.52228 7.3458,-3.52161 8.1796,-4.44295 2.2371,-2.4719 3.5027,-15.58339 4.0865,-42.33472 0.6471,-29.65406 2.7461,-40.71484 10.5516,-55.60307 2.836,-5.40931 2.1678,-9.71279 -2.4468,-15.75822 -4.9734,-6.51551 -5.9106,-12.37304 -3.9513,-24.69681 0.8789,-5.52848 1.3817,-11.18386 1.1172,-12.5675 -0.3874,-2.02621 1.5408,-5.11556 9.9093,-15.87735 5.7147,-7.3489 10.3903,-13.78026 10.3903,-14.2919 0,-0.51164 -0.7895,-1.51827 -1.7544,-2.23696 -0.9649,-0.71868 -8.4877,-8.5067 -16.7173,-17.3067 -8.2297,-8.8 -17.9027,-19.06264 -21.4957,-22.80587 -3.5929,-3.74322 -6.6655,-7.39036 -6.828,-8.10475 -0.1624,-0.71439 7.7728,-7.32675 17.6339,-14.69414 l 17.9291,-13.39524 11.0656,-34 c 16.2743,-50.00438 15.3974,-46.72807 15.3894,-57.5 -0.01,-7.08713 -0.7683,-12.67483 -3.0041,-22 -4.4319,-18.48494 -5.5025,-25.70419 -5.0732,-34.20713 l 0.3864,-7.65085 -5.8272,-0.67632 c -3.205,-0.37197 -5.951,-0.51643 -6.1024,-0.32101 -0.1513,0.19542 -4.4553,8.42741 -9.5644,18.2933 -20.1503,38.91078 -31.6162,54.31631 -49.4719,66.4705 -13.5665,9.23461 -20.0145,12.19357 -26.8744,12.33257 -7.1695,0.14526 -15.0994,-3.50331 -14.3976,-6.62436 0.2618,-1.16419 2.1013,-7.92559 4.0879,-15.02534 1.9865,-7.09976 4.3219,-16.99976 5.1897,-22 4.5304,-26.1025 0.4788,-52.61624 -11.7613,-76.96702 -2.2505,-4.47709 -4.3337,-7.49779 -4.8276,-7 -0.4779,0.48161 -5.6773,11.22566 -11.55439,23.87566 -5.87706,12.65 -12.63103,25.75036 -15.00883,29.11192 -9.29689,13.14326 -25.0945,24.65379 -39.41928,28.72187 -14.68773,4.17115 -35.37634,5.04921 -62.34481,2.646 l -14.66649,-1.30695 -15.99474,10.91358 c -8.7971,6.00247 -20.76846,14.16543 -26.60301,18.13992 l -10.60828,7.22633 -12.64133,-0.54091 -12.64134,-0.54092 -7.79467,20.81458 -7.79467,20.81458 -9.81637,3.76241 c -26.03741,9.9796 -47.85366,28.51269 -65.79215,55.89096 -6.99016,10.66861 -6.5915,9.11312 -7.77768,30.34663 -1.06895,19.13492 3.42266,35.40417 12.68418,45.94385 l 3.46557,3.94386 12.66796,-9.44386 c 6.96738,-5.19412 13.67818,-10.04746 14.9129,-10.7852 2.04736,-1.22331 5.1491,-0.0957 35.24493,12.81268 18.15,7.78472 33.33093,14.47926 33.73539,14.87675 0.40447,0.39748 -3.2304,4.67012 -8.07747,9.49473 l -8.81287,8.77204 -12.17252,-5.00362 C 766.47764,446.35925 761,444.28349 761,444.49843 c 0,0.21494 4.06373,11.30227 9.03051,24.6385 l 9.03051,24.24769 -6.28051,6.39332 c -7.09949,7.227 -16.69656,14.45339 -22.30973,16.79871 -2.07775,0.86815 -7.19617,2.23079 -11.37426,3.0281 -9.51836,1.8164 -17.36028,5.48986 -27.59652,12.92728 -4.4,3.19695 -10.85025,7.82126 -14.33388,10.27625 l -6.33389,4.46363 0.64708,15.07845 c 0.8259,19.24526 1.3917,26.85399 2.04554,27.50782 0.28663,0.28664 1.2203,-0.47702 2.07482,-1.69702 1.32719,-1.89483 11.2096,-13.59611 24.40033,-28.89125 l 3.5,-4.05838 8.5,0.7948 c 4.675,0.43714 12.325,1.06682 17,1.39928 18.8905,1.34339 24.51398,1.81604 24.8026,2.08465 0.16644,0.15489 -7.25856,6.26639 -16.5,13.58111 -45.41049,35.94303 -49.39369,39.24887 -48.8858,40.57242 0.28739,0.74891 2.42661,3.8836 4.75383,6.96599 l 4.23132,5.60433 -2.83526,5.41527 c -4.83608,9.2368 -11.96972,13.38457 -22.96591,13.35324 L 685.5,644.96524 678.00884,633.37168 C 668.67588,618.9277 662.06177,612.6902 646.01588,603.20039 l -12.34259,-7.29961 -12.08665,-0.45081 C 614.93899,595.20203 607.25,594.72841 604.5,594.39748 c -5.48401,-0.65992 -3.67075,1.14246 -31.5,-31.31116 -4.125,-4.81045 -11.55,-13.38877 -16.5,-19.06292 -4.95,-5.67415 -10.8,-12.43468 -13,-15.0234 -2.2,-2.58872 -8.05,-9.33872 -13,-15 -4.95,-5.66128 -10.8,-12.41128 -13,-15 -2.2,-2.58872 -8.05,-9.34916 -13,-15.02321 -4.95,-5.67405 -11.62503,-13.40871 -14.8334,-17.18814 l -5.83339,-6.87169 1.16283,-7.20848 c 6.81031,-42.21774 17.26077,-68.83041 48.86349,-124.43356 l 10.9268,-19.22508 0.67437,-17.89543 0.67438,-17.89543 -2.64636,-0.50589 c -3.10448,-0.59346 -2.80405,-1.30219 -5.40342,12.74691 l -2.03522,11 -5.32377,5 c -2.92807,2.75 -8.28004,7.71247 -11.89327,11.02771 l -6.56949,6.02772 -2.72887,10.97228 c -6.65932,26.77595 -20.51479,54.59764 -35.8102,71.90666 l -4.36034,4.93438 0.76758,-7.94013 c 1.09225,-11.29858 5.78159,-24.63801 14.73958,-41.92862 8.91688,-17.21126 12.18444,-25.40815 15.0663,-37.79481 2.46189,-10.58158 3.99044,-30.40659 3.13464,-40.6556 -0.90468,-10.83433 0.11724,-12.3197 11.89353,-17.28725 l 9.46577,-3.99291 13.53423,5.49199 c 7.44383,3.0206 13.64876,5.39545 13.78874,5.27745 0.13998,-0.11801 -0.25434,-1.67424 -0.87627,-3.45831 -2.00187,-5.74255 -0.52232,-16.55298 3.70632,-27.08056 4.47849,-11.1496 5.24424,-20.93217 2.09646,-26.7827 C 554.76803,206.66178 553,206.74919 553,210.39929 c 0,3.55429 -5.7687,14.22677 -9.30803,17.22048 -5.01371,4.24081 -12.18109,7.00024 -25.69197,9.89138 -14.66048,3.13713 -19.82877,5.60218 -22.17177,10.57497 -2.32581,4.9363 -4.60456,17.07637 -4.77032,25.41388 -0.27437,13.8004 -1.60697,19.67389 -6.79926,29.96815 -1.95073,3.86752 -5.02159,12.71453 -6.82414,19.66003 -1.80255,6.94551 -4.40276,14.84906 -5.77825,17.56346 -2.67158,5.2721 -10.02144,12.67208 -11.97574,12.05741 -0.64929,-0.20422 -4.28379,-6.50311 -8.07669,-13.99753 -6.31553,-12.47895 -6.93712,-14.2645 -7.38266,-21.20697 -0.47969,-7.47445 -0.42076,-7.70728 4.20289,-16.60729 5.42827,-10.44881 7.16796,-18.04916 7.997,-34.93726 0.3105,-6.325 0.84146,-14.00395 1.1799,-17.06433 l 0.61536,-5.56433 -26.85816,-23.35017 c -14.77199,-12.8426 -28.2368,-24.63315 -29.92181,-26.20123 l -3.06366,-2.85105 -16.81141,8.09049 c -9.24627,4.44977 -16.41763,8.43256 -15.93634,8.85065 0.48128,0.41808 5.37506,1.75705 10.87506,2.97549 5.5,1.21843 11.65732,2.65186 13.68292,3.18539 l 3.68293,0.97005 -0.49954,12.22952 c -0.27474,6.72624 -0.0875,13.33559 0.41607,14.68746 0.88562,2.37743 1.07188,2.24643 5.6871,-4 2.62432,-3.55187 5.70694,-8.37044 6.85027,-10.70794 2.32162,-4.74648 2.98543,-5.07332 4.87355,-2.39962 0.71868,1.01772 6.3257,7.20522 12.46003,13.75 13.33801,14.23046 17.30936,18.69849 17.3307,19.49816 0.009,0.32919 -3.83801,1.61665 -8.54842,2.86101 -5.83769,1.54215 -8.41067,2.66307 -8.08155,3.52072 0.26556,0.69204 3.0129,11.0796 6.1052,23.08347 l 5.62236,21.82523 -3.8578,3.8578 -3.8578,3.85779 3.18783,11.19772 c 3.43628,12.07046 3.37129,12.44462 -2.19314,12.62743 -1.92844,0.0634 -3.17086,-3.00957 -12.60629,-31.17971 -18.96145,-56.61077 -22.1595,-65.0817 -25.12647,-66.55457 -2.16274,-1.07362 -3.11477,-1.07239 -5.37795,0.007 -5.72532,2.7305 -4.37488,10.05987 7.26224,39.4151 9.84519,24.835 12.32507,33.03171 13.1252,43.38251 0.57069,7.3827 -0.96728,22.72984 -2.42377,24.18633 -0.4098,0.4098 -2.76302,-1.7808 -5.22938,-4.86801 -15.25167,-19.0909 -16.97853,-22.26278 -18.996,-34.89161 -1.42,-8.88884 -5.02707,-15.63944 -15.99084,-29.92671 -5.06471,-6.6 -9.8269,-12.87455 -10.58265,-13.94344 -1.35639,-1.91842 -1.40331,-1.91691 -3.64444,0.11765 -1.2487,1.1336 -3.45852,2.81507 -4.91071,3.7366 -2.59755,1.64836 -2.74659,1.60124 -9.19598,-2.9072 -18.85553,-13.181 -38.44073,-17.81259 -56.16367,-13.28186 l -5,1.27821 -0.66772,6 c -0.45171,4.05895 -0.28996,6.38116 0.5,7.17821 0.64224,0.64801 6.56772,2.15011 13.16772,3.33801 6.6,1.18789 12.12577,2.28347 12.27949,2.43462 0.76301,0.75023 -0.53326,46.26626 -1.35709,47.65184 -0.52808,0.88818 1.20704,2.76771 10.0776,10.91638 4.4,4.04192 12.06837,11.20365 17.04082,15.91494 4.97245,4.7113 12.64243,11.941 17.04441,16.066 4.40198,4.125 14.84355,13.95822 23.20349,21.8516 8.35994,7.89338 16.33016,15.24067 17.7116,16.32731 2.51028,1.97459 2.51139,1.98314 1.96425,15.1484 -0.30109,7.24498 -0.70374,17.1404 -0.89476,21.98983 -0.36344,9.22599 -0.10353,8.60671 -6.56981,15.65355 -0.825,0.89907 -8.7,9.2017 -17.5,18.45028 -8.8,9.24858 -17.91309,18.94637 -20.25131,21.55064 l -4.25131,4.73503 -11.24869,0.68538 c -13.5642,0.82646 -14.49836,0.95765 -15.75308,2.21237 -0.95321,0.95321 -33.73208,59.62539 -34.72043,62.14747 -0.26982,0.68852 2.82038,-0.31193 6.86712,-2.22323 4.04673,-1.9113 10.2827,-4.21784 13.8577,-5.12565 12.69188,-3.22287 27.28819,0.11311 38.15594,8.72053 l 3.96159,3.13764 6.69124,-7.35803 C 347.48895,558.8562 358.6,546.74818 368.5,535.9964 c 9.9,-10.75178 22.5,-24.47917 28,-30.50533 5.5,-6.02615 10.45349,-11.45001 11.00775,-12.05303 0.71278,-0.77548 9.04587,3.81257 28.47028,15.67523 l 27.46253,16.77161 0.16533,5.37317 c 0.2161,7.02341 2.54315,11.39822 12.17026,22.87995 33.1368,39.52042 49.81625,63.14541 62.69812,88.80647 6.36952,12.68824 6.16335,15.588 -2.30094,32.36226 -7.19787,14.26451 -8.89214,20.34778 -7.30377,26.22417 0.59924,2.21699 1.73743,4.91695 2.52931,5.99991 1.42678,1.95123 1.524,1.94705 10.75891,-0.46233 11.41946,-2.97933 15.42811,-2.81111 22.90069,0.96103 4.77322,2.40952 29.36238,18.39573 32.24844,20.96576 0.4438,0.39521 -5.1812,4.4382 -12.5,8.98443 -7.3188,4.54623 -13.35929,8.32312 -13.4233,8.39309 -0.064,0.07 1.57249,8.66433 3.63668,19.09858 l 3.75306,18.97137 -11.763,15.02863 c -6.46965,8.26575 -14.76472,19.62195 -18.43348,25.23602 C 542.36317,834.2158 529,860.29854 529,862.91826 c 0,0.64028 7.5375,-4.53645 16.75,-11.50385 9.2125,-6.9674 17.23971,-12.85616 17.83825,-13.08613 0.59854,-0.22996 3.96624,3.94648 7.48379,9.28098 l 6.39555,9.6991 -2.98379,2.07422 c -7.90531,5.49548 -19.54124,18.83947 -30.19525,34.62767 -17.07395,25.30192 -25.36593,33.87377 -39.78855,41.13148 l -8,4.02575 -12,-0.70832 c -6.6,-0.38958 -13.8,-0.91006 -16,-1.15663 -2.2,-0.24657 -15.7,-0.42977 -30,-0.40712 -14.3,0.0227 -28.475,-0.4329 -31.5,-1.01234 -3.025,-0.57945 -12.25,-3.00531 -20.5,-5.3908 -17.30317,-5.00323 -22.24896,-6.03115 -36,-7.48214 -14.97772,-1.58043 -26.24193,-3.59921 -58.11708,-10.41582 -4.73568,-1.01275 -5.82655,-1.86751 -14.6357,-11.46804 l -9.51861,-10.37373 -4.62969,-19.12627 C 256.82603,843.64596 254.21174,830.55738 253.48693,821 c -0.35454,-4.675 -0.84556,-9.22793 -1.09115,-10.11763 -0.73213,-2.65227 2.41537,-33.53671 4.62501,-45.38237 1.12854,-6.05 3.35722,-17.75 4.95262,-26 l 2.90073,-15 -4.18707,-3.87983 C 258.38418,718.48627 251.1,713.11497 244.5,708.68397 229.26921,698.45855 222.99359,692.27153 220.15379,684.6815 218.96921,681.51541 218,678.08462 218,677.05753 c 0,-1.2793 -2.56061,-3.36863 -8.13022,-6.63388 -11.17717,-6.55272 -19.88049,-9.57579 -27.86978,-9.68047 -9.39203,-0.12307 -22.18648,4.0273 -16.75,5.4335 0.6875,0.17782 5.00588,2.3456 9.5964,4.81729 6.2898,3.38662 10.31085,6.54019 16.31885,12.79826 9.04597,9.42248 8.57807,6.63564 4.23224,25.20777 -1.35134,5.775 -3.39289,13.9875 -4.53678,18.25 L 188.7809,735 h -3.92257 c -7.34176,0 -13.84867,-4.23266 -17.58095,-11.43617 -0.8367,-1.61489 -2.56455,-6.83451 -3.83965,-11.59915 -1.2751,-4.76464 -3.8925,-12.44336 -5.81644,-17.06383 -3.86012,-9.27033 -2.82064,-8.68851 -13.62129,-7.62413 -7.31645,0.72102 -17.76871,-1.24375 -33.23475,-6.24731 C 94.917188,675.90226 83.892662,673.70497 78,674.49901 c -6.42056,0.86518 -14.055923,3.48315 -14.646388,5.02188 -0.277069,0.72202 0.251126,4.00317 1.173765,7.29143 C 66.393784,693.46415 67.323636,694 77,694 c 10.583884,0 10.273286,-0.28143 15.847669,14.35945 2.751729,7.2273 5.282364,13.85641 5.623634,14.73135 0.40657,1.04235 -0.989413,3.3814 -4.049132,6.78454 -5.402235,6.00859 -6.140936,4.03515 6.487759,17.33205 8.04206,8.46758 14.10119,12.10793 22.9139,13.76674 11.50319,2.16524 15.46188,6.16072 15.46188,15.60555 0,5.96068 -2.35644,21.42032 -3.265,21.42032 -0.34042,0 -8.69684,-4.49991 -18.56983,-9.99981 -9.87298,-5.49989 -18.307132,-9.99989 -18.742552,-10 -0.435419,-10e-5 -7.185419,5.44262 -15,12.09494 -7.81458,6.65232 -18.398415,15.65876 -23.519633,20.01432 l -9.311305,7.91919 6.311305,2.8251 c 3.471218,1.55381 6.857491,3.00987 7.525053,3.23568 0.775427,0.26231 -0.794341,3.66074 -4.346834,9.41058 -3.058319,4.95 -5.757899,9.32025 -5.999067,9.71166 C 53.063567,845.32848 74.679823,853.25029 107,862.5 c 26.02965,7.44942 41.41217,12.70274 50.5,17.24637 4.80912,2.40441 19.36943,11.74215 22.52608,14.44631 0.83934,0.71902 5.49637,9.98071 10.34894,20.58152 l 8.82287,19.2742 -0.10175,31.7258 c -0.056,17.44919 -0.29059,33.3008 -0.52139,35.2258 -1.28578,10.7241 -2.97233,19.8013 -6.02076,32.4044 -4.37899,18.104 -6.31459,28.4795 -7.07129,37.9044 -0.70604,8.7939 0.82737,24.4843 2.99256,30.6211 l 1.50341,4.2611 -11.54388,16.9045 c -6.34914,9.2975 -11.3134,16.9045 -11.03171,16.9045 1.02689,0 31.30564,-13.3421 38.65021,-17.0309 16.78066,-8.4281 33.01352,-21.2312 40.34786,-31.8231 l 2.90115,-4.1897 -2.65448,-14.7282 c -6.10384,-33.8666 -6.36952,-44.6752 -1.36349,-55.4697 1.79626,-3.8733 15.06829,-23.22112 20.33153,-29.6391 0.52583,-0.6412 48.12704,-0.43619 60.88414,0.26221 30.70287,1.68088 94.61908,8.43779 123.36965,13.04209 4.74669,0.7601 17.80084,2.6569 29.00921,4.215 19.68005,2.7358 20.41269,2.9191 21.36556,5.3472 0.54268,1.3828 2.94118,6.6 5.33,11.5937 9.374,19.5959 27.63478,31.7048 61.07988,40.5029 l 12.15431,3.1973 6.96357,10.6102 c 3.82996,5.8355 10.45877,16.6851 14.73069,24.1101 14.40677,25.0403 24.22687,37.1524 36.99598,45.6306 6.7411,4.4758 4.93678,5.7458 15.67903,-11.0352 l 6.98052,-10.9045 2.60797,4.3734 c 1.43439,2.4053 5.66293,11.2856 9.39676,19.7339 9.9329,22.4745 16.20574,31.1781 26.60085,36.9089 l 3.73602,2.0597 11.76261,-5.31 11.76261,-5.3099 3.80019,5.6765 c 4.20886,6.2871 10.48308,17.2951 9.99018,17.5277 -0.17357,0.082 -166.25309,0.036 -369.06559,-0.1024 z M 760.29004,1193 c -9.96712,-17.9841 -25.80356,-37.7085 -39.44701,-49.1314 l -4.9106,-4.1114 -5.80575,2.6055 c -3.19316,1.433 -8.33527,3.7241 -11.42691,5.0914 l -5.62117,2.4859 -16.63764,-27.72 c -9.1507,-15.246 -16.76928,-27.8584 -16.93018,-28.0275 -0.1609,-0.1692 -4.67445,-0.9659 -10.03011,-1.7704 -5.35567,-0.8046 -10.04529,-1.653 -10.42137,-1.8855 -0.37609,-0.2324 -4.64579,-6.7482 -9.48823,-14.4796 -4.84244,-7.7313 -9.19377,-14.057 -9.66962,-14.057 -0.47585,0 -4.74985,1.7947 -9.49778,3.9883 -4.74793,2.1935 -8.99647,3.7634 -9.4412,3.4885 -0.44473,-0.2749 -1.10181,-1.9571 -1.46019,-3.7383 -0.35838,-1.7812 -0.87819,-4.0413 -1.15514,-5.0226 -0.41043,-1.4541 1.95812,-2.9598 12.80933,-8.1429 l 13.31287,-6.3588 4.51533,1.7368 c 21.0226,8.0864 32.01533,12.5552 32.01533,13.0149 0,0.2995 -4.04317,2.1173 -8.98482,4.0394 -4.94165,1.9221 -8.97871,3.7197 -8.97124,3.9947 0.007,0.275 10.01314,6.0488 22.23482,12.8306 l 22.22124,12.3306 11,-3.0375 c 6.05,-1.6706 13.925,-3.7611 17.5,-4.6456 17.96406,-4.4441 28.39919,-8.8316 37.62334,-15.8188 3.36784,-2.5511 7.27522,-6.1486 8.68306,-7.9944 l 2.55971,-3.3559 -1.92621,-3.1674 c -1.05942,-1.7421 -3.50429,-3.92 -5.43306,-4.8397 -3.24014,-1.5451 -3.76416,-1.5496 -6.89035,-0.059 -1.86093,0.8874 -4.93603,2.9766 -6.83355,4.6426 l -3.45004,3.0292 -4.37466,-4.4575 c -2.40606,-2.4515 -4.63839,-4.4574 -4.96074,-4.4574 -0.32234,0 -2.57162,4.0508 -4.99839,9.0018 -3.19078,6.5097 -4.83959,8.8787 -5.95571,8.557 -0.84887,-0.2447 -3.3434,-0.5666 -5.5434,-0.7154 -2.2,-0.1488 -4.33061,-0.737 -4.73469,-1.307 -0.40408,-0.57 -0.74158,-5.6285 -0.75,-11.2411 L 709,1044.0906 719.07153,1036.9 c 19.87604,-14.1907 30.93608,-26.5816 35.52327,-39.79796 2.87637,-8.2872 4.12608,-24.23831 2.06079,-26.30359 -0.97097,-0.97097 -4.67335,-1.42439 -12.76169,-1.5629 l -11.3939,-0.19511 -8.06338,7.72978 C 720.00177,981.0216 709.96966,990.35 702.14304,997.5 l -14.2302,13 -14.20642,-0.4454 c -7.81353,-0.245 -16.44564,-0.455 -19.18247,-0.4668 l -4.97606,-0.021 -2.85497,7.5858 -2.85496,7.5858 -9.16898,1.1901 c -9.02267,1.1711 -27.51025,3.8631 -45.14501,6.5735 -4.93682,0.7588 -9.11758,1.238 -9.29057,1.065 -0.17299,-0.173 3.11673,-3.962 7.3105,-8.42 8.17433,-8.6893 17.34106,-15.3622 26.90626,-19.5861 3.27258,-1.4452 6.09957,-2.777 6.28219,-2.9596 0.18262,-0.1826 -1.72105,-4.55035 -4.23038,-9.70605 l -4.56243,-9.374 13.46059,-4.51048 c 7.40333,-2.48076 13.68641,-4.74244 13.9624,-5.02597 0.27599,-0.28352 -3.18017,-3.07962 -7.68036,-6.21354 -4.5002,-3.13392 -13.26741,-9.26693 -19.48269,-13.62892 l -11.30053,-7.93089 10.14227,-12.71383 c 5.57825,-6.99261 9.76348,-13.04293 9.30052,-13.44517 -0.46296,-0.40223 -9.61674,-4.48306 -20.34174,-9.06851 -10.725,-4.58545 -19.86314,-8.64327 -20.30698,-9.01739 -0.44384,-0.37411 5.29299,-3.43176 12.74851,-6.79477 l 13.55548,-6.11456 15.7515,4.51827 c 8.66332,2.48504 18.45149,5.36416 21.75149,6.39804 3.3,1.03387 8.55248,2.59024 11.67217,3.45858 5.63686,1.56898 5.73178,1.65964 15.24878,14.56344 l 9.57661,12.98462 8.25122,-3.08567 c 26.01983,-9.73053 34.01166,-9.62537 45.16901,0.59436 2.10848,1.93129 3.93185,3.51144 4.05194,3.51144 0.1201,0 3.27415,-4.31081 7.00901,-9.57959 5.50185,-7.76146 7.02235,-9.32724 8.01145,-8.25 0.90197,0.98234 26.40935,35.54512 26.92509,36.48378 0.0466,0.0848 5.37222,0.41005 11.83472,0.72278 l 11.75,0.56859 0.036,-2.72278 c 0.0198,-1.49753 0.29213,-8.10466 0.60518,-14.68251 0.47467,-9.97402 0.34416,-11.78449 -0.78601,-10.90426 -0.74534,0.5805 -3.82237,2.9757 -6.83783,5.32265 l -5.48266,4.26719 -1.36715,-3.35049 c -1.93146,-4.7335 -0.91351,-10.47479 2.50228,-14.11298 3.76882,-4.0142 16.40255,-12.12765 17.26318,-11.08651 0.37468,0.45327 3.99923,7.92903 8.05455,16.6128 l 7.37331,15.78868 -5.90068,5.9629 c -5.65028,5.70986 -5.81707,6.02258 -3.93043,7.36934 1.08364,0.77353 7.13026,5.47532 13.43693,10.44842 6.30667,4.97309 11.64515,8.8635 11.86329,8.64536 0.21814,-0.21814 -0.30788,-5.70814 -1.16894,-12.2 -0.86107,-6.49185 -1.77202,-13.73665 -2.02434,-16.09955 l -0.45876,-4.29619 9.62926,0.41858 c 6.84413,0.29752 9.82939,0.81704 10.3212,1.79619 0.38056,0.75768 4.0871,8.38385 8.23675,16.94705 10.75064,22.18494 31.32326,52.34745 49.63487,72.77195 l 5.5,6.1347 10.5,-13.4509 c 5.775,-7.398 10.8026,-13.4677 11.17245,-13.4881 0.36984,-0.02 1.21837,1.6504 1.88561,3.7129 1.71286,5.2946 9.13923,20.091 13.52865,26.9546 4.45759,6.9702 12.75716,17.9539 24.76807,32.7782 10.82837,13.3648 16.97069,22.4049 22.57112,33.2198 5.3384,10.309 9.2454,13.9087 25.7298,23.7066 7.2196,4.2912 16.9047,10.6377 21.5224,14.1033 10.1897,7.6475 25.6064,22.7298 33.8939,33.1587 6.053,7.6171 15.928,21.7389 15.928,22.7779 0,0.2966 -75.8492,0.6545 -168.55377,0.7951 L 763.89245,1199.5 Z m 362.60916,-4.5 c -5.8688,-6.05 -16.425,-17.75 -23.4582,-26 -31.7783,-37.2759 -49.1842,-54.7449 -67.2113,-67.4548 -8.3557,-5.8912 -9.2338,-6.8237 -10.0562,-10.6797 -1.6111,-7.5542 -5.7091,-12.9006 -17.4636,-22.7838 -6.16544,-5.1839 -11.76983,-10.3503 -12.45418,-11.4808 -1.10329,-1.8225 -0.92849,-2.2188 1.54247,-3.4965 4.06757,-2.1035 14.85991,-3.838 19.25741,-3.095 6.5755,1.1109 24.5492,0.7752 28.5832,-0.5339 4.7866,-1.5534 9.0679,-4.426 12.4582,-8.3589 l 2.597,-3.0126 -14.847,-25.7707 C 1033.6811,991.65938 1027,979.8727 1027,979.64066 c 0,-0.45264 16.0136,5.33647 22.3059,8.06386 2.1116,0.91526 5.5412,3.82907 7.7037,6.54507 7.8297,9.83361 12.5677,12.59841 32.9904,19.25111 7.975,2.5979 16.075,5.3226 18,6.0549 9.0068,3.4265 19.3253,0.8295 37,-9.3123 7.4774,-4.2905 13.2057,-6.8722 16.3764,-7.3807 2.682,-0.4301 5.1095,-1.0151 5.3944,-1.3 0.2848,-0.2849 -0.2544,-2.5405 -1.1985,-5.01242 -2.1122,-5.53079 -8.82,-11.75408 -19.3525,-17.95472 -4.2459,-2.49964 -8.5523,-5.20118 -9.5697,-6.00342 -2.3168,-1.8268 -6.6501,-13.56557 -6.6501,-18.01508 0,-6.87683 4.3348,-6.80454 17,0.2835 l 6.5,3.63772 21,0.59626 c 11.8526,0.33654 22.1979,1.08844 23.75,1.72616 l 2.75,1.1299 v 118.4987 118.4986 l -33.7152,0.2761 -33.7152,0.2761 z M 1011.4985,1022.1682 C 984.54897,1008.4766 978.96388,1004.5676 971.61435,994.25314 968.16946,989.41853 960,973.82882 960,972.08959 c 0,-1.32034 3.61643,-2.34611 5.81321,-1.64887 0.99727,0.31652 3.25948,2.62733 5.02715,5.13514 2.3142,3.28317 4.78731,5.27996 8.83414,7.13266 5.42584,2.48403 12.92788,3.74386 13.80856,2.3189 0.23522,-0.3806 -3.65013,-6.64458 -8.63411,-13.91996 -4.98399,-7.27537 -8.85627,-13.43347 -8.60507,-13.68467 1.25504,-1.25505 17.49049,8.33263 23.27807,13.74662 8.61445,8.05836 13.40395,16.00268 22.18235,36.79319 4.0727,9.6456 8.2986,19.0566 9.3909,20.9134 1.0923,1.8568 1.8546,3.5075 1.6939,3.6682 -0.1606,0.1607 -9.7414,-4.5086 -21.2906,-10.376 z M 910.70625,995.25 c -11.20237,-14.05513 -16.60257,-25.39001 -28.10891,-58.99987 -10.14798,-29.64208 -12.73154,-35.50841 -16.02618,-36.38953 -1.43568,-0.38396 -7.88902,-0.80611 -14.34075,-0.93811 -6.45172,-0.13201 -13.30541,-0.34348 -15.23041,-0.46995 -1.925,-0.12646 -5.3,-0.28004 -7.5,-0.34129 l -4,-0.11136 0.0891,-13.74994 c 0.0978,-15.08863 0.86015,-17.82519 6.67314,-23.95259 l 3.03831,-3.20263 -3.52367,-9.29737 C 827.30607,836.00099 826.65656,832.2944 828.25252,827.68459 829.61555,823.74757 840.55175,808 841.92286,808 c 0.45184,0 1.11791,1.9125 1.48015,4.25 1.58879,10.25215 8.00424,38.35743 9.00076,39.4312 0.71592,0.77141 7.34096,1.41337 19.09623,1.85042 9.9,0.36806 21.15,0.79863 25,0.95681 l 7,0.28759 7.5,-6.06869 c 4.125,-3.33777 8.0414,-6.47497 8.70311,-6.97154 0.66172,-0.49657 4.58171,-2.16327 8.7111,-3.70379 9.87038,-3.68224 19.26214,-10.50666 25.1301,-18.26051 6.03692,-7.97712 8.72938,-13.86762 11.85036,-25.92599 7.02134,-27.12788 16.57564,-38.61102 66.43373,-79.8455 17.872,-14.78075 15.7135,-13.77554 34.1716,-15.91393 5.225,-0.60532 12.875,-1.5381 17,-2.07284 13.0403,-1.69047 37.1818,-4.51895 52,-6.09246 l 9.5,-1.00879 19.7759,-19.70599 c 21.1092,-21.03453 25.7846,-26.64101 32.4554,-38.91841 l 4.2313,-7.78758 0.019,41.05 c 0.012,25.55693 -0.3519,41.42062 -0.9633,42.03197 -1.5332,1.53324 -1.759,18.07706 -0.267,19.56901 0.8735,0.87348 1.249,5.24792 1.249,14.54902 0,7.315 -0.1956,13.3 -0.4346,13.3 -0.2391,0 -3.7266,0.69816 -7.75,1.55147 -15.0608,3.19412 -31.5711,1.47302 -46.5029,-4.84768 l -8.1875,-3.46579 -1.9455,2.131 c -2.6659,2.91999 -4.8863,7.52107 -5.6295,11.66556 -0.6491,3.61907 1.0154,10.38445 5.823,23.66748 2.8555,7.88976 3.7638,15.95471 2.3795,21.12888 l -0.8912,3.33091 -16.6806,-0.63089 c -9.1744,-0.347 -20.9557,-0.82157 -26.1807,-1.05461 -5.225,-0.23304 -15.8,-0.65977 -23.5,-0.94828 -7.7,-0.28852 -19.6954,-0.78748 -26.6564,-1.10882 -14.8,-0.68319 -13.5858,-1.79036 -13.7959,12.58077 -0.076,5.225 -0.3067,12.2 -0.5117,15.5 l -0.3729,6 9.4673,11.87167 c 8.637,10.83057 9.3095,11.97829 7.6684,13.0875 -0.9893,0.66871 -6.9812,3.96312 -13.3153,7.3209 l -11.5164,6.10507 -6.9801,-5.28949 -6.98,-5.2895 -6.4026,4.84693 c -3.52148,2.6658 -6.70711,4.84692 -7.07922,4.84692 -0.3721,0 -1.76749,-1.16879 -3.10087,-2.59732 -5.31461,-5.69387 -9.26654,-6.83942 -22.85689,-6.62554 -7.54855,0.1188 -12.69257,0.61634 -13.09441,1.26653 -0.364,0.58897 -1.69063,6.67986 -2.94805,13.53531 -1.25742,6.85545 -2.57752,12.64449 -2.93355,12.86452 -0.35603,0.22004 -4.00974,-0.19336 -8.11937,-0.91868 -4.10962,-0.72531 -12.64704,-2.06059 -18.97204,-2.96728 -6.325,-0.90669 -14.338,-2.09566 -17.80668,-2.64217 -6.20484,-0.97761 -6.37035,-0.94322 -10.25,2.12952 -5.16278,4.089 -5.21127,7.01233 -0.19332,11.65469 8.15326,7.54301 19.35449,15.15602 26.8608,18.25618 13.19481,5.44955 18.97228,10.84005 25.86264,24.1304 2.44831,4.72239 4.89632,9.75617 5.44001,11.18619 l 0.98852,2.60002 -6.20098,-2.81476 c -3.41055,-1.54812 -9.63257,-4.39332 -13.82672,-6.32266 l -7.62572,-3.5079 -1.07508,3.63648 c -0.59129,2.00006 -1.82706,7.49517 -2.74614,12.21136 -1.53835,7.89392 -1.54447,9.01032 -0.0771,14.05801 0.87669,3.01571 2.93987,7.48202 4.58484,9.92511 l 2.99086,4.44199 -6.18409,6.25 c -3.40125,3.4375 -6.5152,6.25 -6.91988,6.25 -0.40468,0 -3.15677,-3.0375 -6.11574,-6.75 z m -687.44579,1.25 c 0.2982,-0.55 2.60259,-9.69191 5.12086,-20.31536 l 4.57867,-19.31535 -16.1302,-30.50666 -16.13021,-30.50666 2.11055,-2.11055 2.11055,-2.11055 5.28966,4.98979 c 12.35737,11.65683 15.31685,14.34006 15.78966,14.3158 0.275,-0.0141 4.06854,-5.41865 8.43008,-12.01007 4.36155,-6.59143 8.45759,-12.4222 9.10231,-12.95727 1.97657,-1.64041 7.78332,3.06518 9.33338,7.56344 1.83044,5.31191 0.2182,18.97662 -3.25289,27.57017 -1.39875,3.46296 -2.44637,6.35153 -2.32803,6.41903 0.11833,0.0675 4.94015,3.51172 10.71515,7.65382 24.49838,17.5714 33.24334,19.43174 50.5275,10.74882 9.84652,-4.94652 13.71486,-5.2255 21.11784,-1.52302 7.77236,3.88722 15.81789,5.47039 33.79387,6.64983 13.52643,0.8875 18.24291,1.60239 23.95193,3.63046 23.13031,8.21681 28.1466,9.07748 60.29991,10.3459 13.85508,0.54657 26.68008,1.21283 28.5,1.48057 1.81992,0.26775 10.95895,0.73578 20.30895,1.04007 23.77263,0.77367 21.66472,-0.26251 21.30241,10.4716 -0.17341,5.13767 -0.73179,8.96297 -1.30901,8.96779 -0.55363,0.005 -2.57863,-0.46061 -4.5,-1.03384 -1.92137,-0.57323 -14.7434,-1.19403 -28.4934,-1.37954 -13.75,-0.18552 -27.47305,-0.85083 -30.49567,-1.47847 -5.56538,-1.15564 -17.21005,-6.12178 -19.98875,-8.52467 -0.83357,-0.72083 -4.66558,-1.59986 -8.51558,-1.95339 -3.85,-0.35354 -10.6,-1.07515 -15,-1.60359 -7.89015,-0.94761 -17.59674,-2.09327 -33.75,-3.9835 -4.5375,-0.53098 -14.1,-1.67403 -21.25,-2.54013 -21.94468,-2.6582 -54.44102,-5.49454 -62.9353,-5.4931 -14.10079,0.002 -34.16595,4.6148 -42.53541,9.77769 -2.77651,1.71275 -8.10848,7.21596 -13.77814,14.22061 -8.56625,10.58328 -13.29698,15.90961 -11.99069,13.50033 z M 1077.5,978.91512 c -6.5027,-0.90855 -11.7802,-3.26869 -29.1737,-13.04672 -13.5678,-7.62734 -14.3326,-8.22095 -14.4448,-11.21109 -0.1829,-4.87452 0.1311,-5.98416 2.3795,-8.40731 2.4481,-2.63846 7.4177,-2.98462 11.6237,-0.80963 1.5319,0.7922 6.9871,5.99761 12.1226,11.56758 5.1355,5.56996 11.0583,11.0052 13.1618,12.07832 4.565,2.32889 11.4869,3.40029 14.5094,2.24582 2.3554,-0.89971 5.3789,2.58934 -46.773,-53.97587 l -15.8062,-17.14379 4.3932,-1.10621 c 8.3794,-2.10996 8.4135,-2.0912 21.1686,11.6208 15.2533,16.39753 35.9567,37.30344 39.9835,40.37465 l 3.1447,2.39833 -1.4344,8.87652 c -2.4443,15.12632 -4.9552,17.92179 -14.8549,16.5386 z m 117,-73.71104 c -7.3537,-4.05878 -13.5434,-8.53678 -17.4884,-12.65223 -2.854,-2.97724 -3.2218,-3.80392 -2.022,-4.5454 2.4806,-1.53314 14.2107,-3.20043 20.0104,-2.84424 l 5.5,0.33779 0.2828,11.25 c 0.1555,6.1875 -0.07,11.24185 -0.5,11.23188 -0.4306,-0.01 -3.0328,-1.25997 -5.7828,-2.7778 z m -7.5,-43.25782 c -16.2912,-3.49759 -35,-8.31292 -35,-9.0084 0,-1.53994 10.0208,-3.15324 18.8175,-3.02952 7.5457,0.10611 11.2539,0.75358 19.5,3.40477 l 10.1825,3.27374 0.3104,3.70658 c 0.2924,3.49199 0.1476,3.69995 -2.5,3.59214 -1.5457,-0.0629 -6.6354,-0.93563 -11.3104,-1.93931 z M 222.68235,803.71168 C 218.02029,799.3729 217,797.83911 217,795.16952 c 0,-5.33665 -2.97615,-18.14935 -6.10019,-26.26204 -3.02331,-7.85113 -12.47382,-23.00531 -17.83768,-28.60325 C 191.37796,738.54656 190,736.90351 190,736.65301 c 0,-0.2505 1.4625,-1.31836 3.25,-2.37301 1.7875,-1.05466 6.90883,-4.87149 11.38073,-8.48186 9.27679,-7.48958 13.52795,-9.27885 19.64,-8.26628 7.37726,1.22216 8.53223,2.37782 13.78622,13.79443 l 4.92472,10.70112 -6.3669,9.2363 c -7.66496,11.11935 -9.94806,15.55725 -11.58801,22.52488 -2.06704,8.78221 0.91552,17.23174 9.88851,28.01387 l 4.94711,5.94456 -4.57076,0.62649 C 232.7777,808.71808 230.19072,809 229.54278,809 c -0.64795,0 -3.73514,-2.37975 -6.86043,-5.28832 z M 1083.6043,669.55964 c -0.3533,-1.4078 -0.4209,-3.57214 -0.1503,-4.80964 0.2707,-1.2375 0.7168,-8.27502 0.9913,-15.63893 0.2746,-7.36391 0.6242,-13.47605 0.777,-13.58253 0.1527,-0.10648 3.0323,-1.20216 6.399,-2.43485 19.04,-6.97137 36.5643,-26.02652 52.0468,-56.59369 6.6586,-13.14628 7.1276,-14.84599 7.8962,-28.61665 0.7179,-12.86362 2.5546,-18.61329 8.4223,-26.36571 2.7203,-3.59396 9.421,-13.16819 14.8904,-21.27606 10.3657,-15.36618 20.0157,-27.49599 23.8861,-30.02448 l 2.2631,-1.47845 -0.2631,34.70805 -0.2631,34.70804 -11.9392,4.94515 c -6.5665,2.71984 -12.0578,5.06375 -12.2027,5.20871 -0.145,0.14495 2.5867,9.38794 6.0703,20.53997 l 6.3339,20.27642 -4.1312,2.62602 c -7.176,4.56157 -14.9144,8.05141 -21.6311,9.75518 -3.575,0.90684 -6.871,2.00737 -7.3243,2.44564 -0.4534,0.43827 1.0556,4.53591 3.3533,9.10587 3.9936,7.94283 4.1241,8.48824 2.9617,12.37566 -5.4928,18.36998 -17.7693,27.89518 -46.4907,36.07164 -10.9427,3.11519 -22.492,6.99068 -29.6266,9.94153 -1.1882,0.49143 -1.7998,-0.0171 -2.2691,-1.88689 z M 556.99353,629.11395 c -8.37423,-2.70867 -11.71551,-6.09647 -18.64548,-18.90508 -13.69902,-25.31981 -30.75036,-45.48653 -62.61523,-74.05541 L 464.96565,526.5 l 0.15583,-6.01806 c 0.21635,-8.35561 -2.23236,-12.61035 -12.84069,-22.31121 -11.40963,-10.43361 -11.74711,-10.68698 -28.34776,-21.28319 -13.92617,-8.88909 -14.16842,-8.99648 -15.61978,-6.92438 -4.78641,6.83356 -20.88406,25.66619 -27.57853,32.26411 -8.84545,8.71787 -20.34695,16.68357 -28.84935,19.98044 l -5.72698,2.22069 -2.75074,14.2858 C 341.89474,546.57139 340.22992,553 339.70805,553 338.89789,553 327.45191,542.69827 310,526.26185 l -4.5,-4.23816 6.12178,-0.0118 c 3.36697,-0.007 10.37339,-1.09036 15.56982,-2.40855 23.38464,-5.93199 38.83906,-18.41111 63.27503,-51.09323 10.82797,-14.48197 11.97331,-16.41527 12.14485,-20.5 0.10417,-2.48054 0.48275,-12.01374 0.8413,-21.18489 l 0.65191,-16.67483 -3.18012,-6.32517 c -4.38854,-8.72872 -11.12258,-19.04931 -17.70466,-27.13417 -5.85758,-7.19497 -19.06481,-18.46155 -25.63831,-21.87109 -5.93549,-3.07861 -12.53897,-10.594 -17.96815,-20.44947 -2.6876,-4.87875 -6.60357,-11.93033 -8.70217,-15.67019 -2.49587,-4.44784 -3.39982,-6.92969 -2.61345,-7.17547 0.66119,-0.20665 5.64229,-0.57431 11.06911,-0.81703 l 9.86693,-0.4413 12.6756,17.11677 c 6.97158,9.41422 24.29464,32.97927 38.49568,52.36677 14.20105,19.3875 26.12974,35.25 26.50821,35.25 0.37846,0 1.7143,-2.1375 2.96854,-4.75 1.25423,-2.6125 3.35739,-6.6105 4.67369,-8.88444 l 2.39327,-4.13444 15.18368,4.87589 c 8.35103,2.68173 15.40156,5.09376 15.66786,5.36006 0.26629,0.26629 0.50567,1.73264 0.53195,3.25855 0.0953,5.5341 -1.53876,40.78467 -1.90842,41.16886 -0.20876,0.21697 -5.67705,-2.77916 -12.15175,-6.65807 -6.4747,-3.87891 -11.87885,-6.94976 -12.00922,-6.82411 -0.13038,0.12565 1.229,7.62178 3.02084,16.65808 L 448.54169,471.5 506.4624,546 c 31.85638,40.975 59.25968,76.18733 60.8962,78.24961 1.63653,2.06229 2.77967,3.94545 2.54032,4.1848 -0.93933,0.93934 -10.5394,1.44483 -12.90539,0.67954 z M 903,555.12857 c 0,-0.46542 4.05561,-8.31028 9.01246,-17.43301 l 9.01247,-16.5868 -2.96935,-4.68217 c -1.63314,-2.57519 -3.47993,-6.98717 -4.10398,-9.80438 -1.50213,-6.7812 0.45348,-15.24185 6.52735,-28.23958 C 922.96553,473.0615 925,468.20305 925,467.58606 c 0,-1.30766 -20.72677,-22.20375 -21.36102,-21.53552 -0.23462,0.24721 -2.44069,7.29164 -4.90238,15.65429 -3.94874,13.41436 -4.86807,15.53399 -7.80702,18 C 889.0974,481.24218 880.579,488.575 871.99979,496 c -8.57921,7.425 -16.38228,14.1329 -17.34015,14.90645 -1.54464,1.2474 -2.10987,1.0495 -4.99822,-1.75 C 847.87027,507.4204 846.1276,506 845.78883,506 c -0.33878,0 -3.90361,5.37625 -7.92184,11.94722 -4.01823,6.57097 -7.43057,11.82253 -7.58297,11.67013 -1.14869,-1.14869 -24.11055,-52.12406 -23.67524,-52.55906 1.82728,-1.82595 9.66314,10e-4 18.65675,4.35017 5.37105,2.59728 11.2373,4.96116 13.03613,5.25307 5.75229,0.93346 11.31185,-1.4349 21.65106,-9.22332 12.03114,-9.06293 18.02381,-15.67649 22.59694,-24.93821 l 3.45638,-7 -12.89272,-28.8397 c -7.091,-15.86184 -13.27986,-29.20827 -13.75302,-29.65873 -0.47317,-0.45047 -9.1853,-1.1216 -19.3603,-1.49141 -21.71622,-0.78928 -20.9716,-0.53271 -38.01226,-13.09779 -14.45193,-10.65626 -25.55408,-16.25819 -33.40378,-16.85492 -6.97038,-0.52987 -16.03344,2.03966 -22.5505,6.39345 l -4.46654,2.98392 -3.98667,-9.46741 c -2.19267,-5.20708 -4.23273,-9.44834 -4.53346,-9.42502 -0.30073,0.0233 -6.35597,12.06081 -13.45609,26.75 -7.10011,14.68918 -13.27642,27.12392 -13.72514,27.63275 -0.45635,0.5175 -1.97953,-1.61668 -3.45678,-4.84343 -3.63076,-7.93062 -3.08329,-13.28115 2.61754,-25.58171 3.48117,-7.51125 4.41029,-10.65138 4.43828,-15 l 0.0354,-5.5 18.80986,-15.09335 18.80987,-15.09335 11.69013,-3.27767 c 14.86971,-4.16915 25.79564,-4.99169 33.28088,-2.50549 6.84719,2.27427 14.25893,9.65995 18.34313,18.27865 l 2.93387,6.19121 6.81613,0.1875 c 3.74887,0.10312 8.05363,0.21562 9.56613,0.25 2.24397,0.051 3.35902,1.08194 6.05971,5.6026 4.22765,7.07664 11.45841,14.78552 22.19029,23.65762 10.57757,8.74452 18.17803,16.75501 20.75592,21.87565 1.08723,2.15965 3.44761,7.97663 5.24529,12.92663 1.79768,4.95 4.34859,11.15366 5.66869,13.7859 4.62178,9.21573 12.7794,16.18154 21.7858,18.60296 5.14115,1.38223 5.59393,0.59554 5.11593,-8.88886 -0.63583,-12.61595 -5.86025,-25.09804 -16.3985,-39.17895 -2.74921,-3.67343 -9.52618,-13.39541 -15.05992,-21.60441 -11.9476,-17.72361 -20.68705,-26.61623 -29.68002,-30.20021 -9.97145,-3.97394 -13.88377,-7.46123 -21.93635,-19.55325 -7.4327,-11.16118 -12.10782,-15.63088 -17.80548,-17.02313 l -2.80865,-0.6863 2.30865,-2.47726 c 1.26975,-1.3625 4.36302,-4.2044 6.87393,-6.31534 l 4.56529,-3.83809 12.62858,9.41077 c 14.14256,10.53898 21.70649,17.80094 25.4835,24.46617 12.71446,22.43698 19.92506,28.89327 37.31278,33.40942 10.10464,2.62451 12.38172,4.30073 22.19803,16.34058 2.80266,3.4375 5.41457,6.25 5.80424,6.25 0.68116,0 19.1513,-31.36749 19.72005,-33.49018 0.15277,-0.57017 -3.5139,-3.22774 -8.14815,-5.9057 l -8.42592,-4.86904 -5.85184,-13.06588 C 924.13333,310.48297 921.5,304.15875 921.5,303.61539 c 0,-0.54336 4.275,-2.85132 9.5,-5.12879 l 9.5,-4.14086 -0.0221,-5.60737 c -0.0303,-7.68281 -3.30167,-11.58747 -14.93335,-17.82422 -4.88108,-2.61716 -10.25131,-5.96645 -11.93385,-7.44285 -2.59953,-2.28105 -4.1148,-2.72691 -10.08493,-2.96742 C 866.8279,259.02545 858,258.86654 858,259.68434 c 0,0.85952 5.95968,18.80706 7.45648,22.45514 0.55475,1.35207 -0.34666,1.81662 -5.1419,2.6499 -3.19802,0.55572 -5.90894,0.92359 -6.02428,0.81748 -0.11533,-0.10611 -3.3914,-7.34392 -7.28014,-16.08403 -5.65177,-12.70257 -6.81359,-16.12291 -5.7903,-17.04637 0.70407,-0.63539 8.1907,-5.33425 16.63694,-10.4419 l 15.35679,-9.28665 20.64321,0.60057 c 26.82461,0.78039 38.82217,1.9116 54.4744,5.1362 21.02803,4.33209 56.6778,17.7791 56.6612,21.37252 -0.025,5.39391 -2.4936,15.19269 -5.15731,20.46948 -1.698,3.36373 -6.23207,10.80311 -10.0757,16.53195 -9.39151,13.99781 -13.94678,23.74638 -14.12206,30.2221 l -0.13733,5.07381 16.49729,6.35393 c 14.76751,5.68769 16.66971,6.19786 18.14191,4.86555 1.9283,-1.74511 2.6323,-6.92318 3.4495,-25.37402 0.5159,-11.64782 0.9201,-17.82976 1.3121,-20.06586 0.055,-0.31122 1.8402,-1.54437 3.9681,-2.74032 l 3.869,-2.17446 -0.4259,13.41125 -0.4259,13.41125 5.3069,0.48152 c 2.9189,0.26483 6.5737,0.47963 8.1219,0.47732 1.5482,-0.002 3.0369,0.2178 3.3083,0.48912 0.2713,0.27132 -4.4486,7.17648 -10.4886,15.3448 -6.04,8.16831 -10.806,15.02732 -10.5911,15.24223 0.2149,0.21491 6.0624,1.84113 12.9944,3.61381 l 12.6036,3.22306 1.3344,-2.10686 c 0.7339,-1.15877 3.5871,-6.60686 6.3405,-12.10686 3.0334,-6.0593 5.2174,-9.40889 5.5422,-8.5 1.3412,3.75315 19.8796,61.60259 20.0028,62.41916 0.076,0.50555 -4.2209,2.30555 -9.5492,4 -5.3283,1.69446 -9.9913,3.3938 -10.3621,3.77631 -0.3709,0.3825 -1.1981,4.64721 -1.8381,9.47713 l -1.1638,8.78168 -5.5596,4.52286 c -3.0577,2.48757 -9.0002,7.33218 -13.2055,10.76579 l -7.6459,6.24293 -8.7686,-0.44342 c -4.8227,-0.24388 -10.4038,-0.4657 -12.4025,-0.49293 -3.4806,-0.0474 -3.7296,-0.29194 -5.90588,-5.79951 -1.24964,-3.1625 -2.59689,-6.12249 -2.99389,-6.57775 -0.397,-0.45526 -12.87664,8.22996 -27.73254,19.30049 l -27.01071,20.12824 -4.61844,9.55291 c -5.83915,12.07786 -6.19355,13.50318 -3.87846,15.5983 1.74353,1.57788 2.48964,1.13895 14.30664,-8.4166 16.04229,-12.97224 23.21841,-17.78309 40.9385,-27.44504 7.95923,-4.3398 14.78648,-8.02882 15.17178,-8.19781 0.3853,-0.169 0.5326,0.956 0.3275,2.5 -0.5242,3.94437 -1.3863,24.26641 -1.4322,33.75726 -0.021,4.42478 -0.4138,7.52875 -0.8851,7 -0.4656,-0.5225 -2.2657,-5.86257 -4.00012,-11.86681 -1.73441,-6.00425 -3.4152,-11.17854 -3.73509,-11.49843 -0.31989,-0.31989 -1.10732,0.13097 -1.74985,1.0019 -0.64253,0.87094 -5.6403,7.05773 -11.10615,13.74843 L 971.62418,500 h -7.41088 c -7.06652,0 -7.5531,0.15102 -10.47144,3.25 -1.68331,1.7875 -7.22522,9.55526 -12.31536,17.26168 -10.5512,15.97442 -15.42812,21.85104 -22.35153,26.93329 C 913.76781,551.34078 903,556.48764 903,555.12857 Z m 185.5742,-278.02772 c 0.3502,-9.40547 0.4242,-17.10085 0.1646,-17.10085 -0.2597,0 -14.6308,6.975 -31.9358,15.5 -17.305,8.525 -31.765,15.5 -32.1333,15.5 -0.3684,0 -0.6697,-1.98322 -0.6697,-4.40715 v -4.40714 l 34.75,-24.2694 c 19.1125,-13.34817 37.5765,-26.26446 41.0312,-28.70286 l 6.2811,-4.43347 -0.4751,8.86001 c -0.2614,4.87301 -0.7381,16.51001 -1.0594,25.86001 -0.3213,9.35 -0.8261,18.92549 -1.1216,21.27887 -0.566,4.50681 -0.2298,4.18659 -11.6874,11.13104 l -3.7812,2.29179 z"
       id="logoPath" />
      </symbol>
   <use xlink:href="#logoSymbol" style="fill:rgb(236, 72, 153);"></use>
</svg>
