<?xml version="1.0" encoding="UTF-8" standalone="no"?>
<!-- Edited from an SVG generated with Inkscape (http://www.inkscape.org/) -->

<svg
   version="1.1"
   width="1192"
   height="1192"
   viewBox="0 0 1192 1192"
   xmlns:xlink="http://www.w3.org/1999/xlink"
   xmlns="http://www.w3.org/2000/svg"
   xmlns:svg="http://www.w3.org/2000/svg">
  <symbol
     id="logoInverted">
    <path
       d="m 731.49146,1186.75 c -1.55452,-2.8875 -4.54536,-7.8045 -6.64632,-10.9266 l -3.81992,-5.6765 -11.76261,5.3099 -11.76261,5.31 -3.73602,-2.0597 c -10.39511,-5.7308 -16.66795,-14.4344 -26.60085,-36.9089 -3.73383,-8.4483 -7.96237,-17.3286 -9.39676,-19.7339 l -2.60797,-4.3734 -6.98052,10.9045 c -10.74225,16.781 -8.93793,15.511 -15.67903,11.0352 -12.76911,-8.4782 -22.58921,-20.5903 -36.99598,-45.6306 -4.27192,-7.425 -10.90073,-18.2746 -14.73069,-24.1101 l -6.96357,-10.6102 -12.15431,-3.1973 c -33.4451,-8.7981 -51.70588,-20.907 -61.07988,-40.5029 -2.38882,-4.9937 -4.78732,-10.2109 -5.33,-11.5937 -0.95287,-2.4281 -1.68551,-2.6114 -21.36556,-5.34721 -11.20837,-1.55811 -24.26252,-3.45488 -29.00921,-4.21504 C 416.11908,989.8193 352.20287,983.06239 321.5,981.38151 c -12.7571,-0.6984 -60.35831,-0.90341 -60.88414,-0.26221 -5.26324,6.41798 -18.53527,25.7658 -20.33153,29.6391 -5.00603,10.7945 -4.74035,21.6031 1.36349,55.4697 l 2.65448,14.7282 -2.90115,4.1897 c -7.33434,10.5919 -23.5672,23.395 -40.34786,31.8231 -7.34457,3.6888 -37.62332,17.0309 -38.65021,17.0309 -0.28169,0 4.68257,-7.607 11.03171,-16.9045 l 11.54388,-16.9045 -1.50341,-4.2611 c -2.16519,-6.1368 -3.6986,-21.8272 -2.99256,-30.6211 0.7567,-9.4249 2.6923,-19.8004 7.07129,-37.9044 3.04843,-12.6031 4.73498,-21.6803 6.02076,-32.4044 0.2308,-1.925 0.46543,-17.77661 0.52139,-35.2258 l 0.10175,-31.7258 -8.82287,-19.2742 c -4.85257,-10.60081 -9.5096,-19.8625 -10.34894,-20.58152 C 171.86943,885.48852 157.30912,876.15078 152.5,873.74637 143.41217,869.20274 128.02965,863.94942 102,856.5 69.679823,847.25029 48.063567,839.32848 49.367847,837.21166 49.609015,836.82025 52.308595,832.45 55.366914,827.5 c 3.552493,-5.74984 5.122261,-9.14827 4.346834,-9.41058 -0.667562,-0.22581 -4.053835,-1.68187 -7.525053,-3.23568 l -6.311305,-2.8251 9.311305,-7.91919 c 5.121218,-4.35556 15.705053,-13.362 23.519633,-20.01432 7.814581,-6.65232 14.564581,-12.09504 15,-12.09494 0.43542,1.1e-4 8.869572,4.50011 18.742552,10 9.87299,5.4999 18.22941,9.99981 18.56983,9.99981 0.90856,0 3.265,-15.45964 3.265,-21.42032 0,-9.44483 -3.95869,-13.44031 -15.46188,-15.60555 -8.81271,-1.65881 -14.87184,-5.29916 -22.913902,-13.76674 -12.628693,-13.2969 -11.889992,-11.32346 -6.487757,-17.33205 3.059719,-3.40314 4.455702,-5.74219 4.049132,-6.78454 -0.34127,-0.87494 -2.871905,-7.50405 -5.623634,-14.73135 C 82.273286,687.71857 82.583884,688 72,688 c -9.676364,0 -10.606216,-0.53585 -12.472623,-7.18768 -0.922639,-3.28826 -1.450834,-6.56941 -1.173765,-7.29143 0.590465,-1.53873 8.225828,-4.1567 14.646388,-5.02188 5.892662,-0.79404 16.917188,1.40325 32.76525,6.5304 15.46604,5.00356 25.9183,6.96833 33.23475,6.24731 10.80065,-1.06438 9.76117,-1.6462 13.62129,7.62413 1.92394,4.62047 4.54134,12.29919 5.81644,17.06383 1.2751,4.76464 3.00295,9.98426 3.83965,11.59915 C 166.00966,724.76734 172.51657,729 179.85833,729 h 3.92257 l 2.07981,-7.75 c 1.14389,-4.2625 3.18544,-12.475 4.53678,-18.25 4.34583,-18.57213 4.81373,-15.78529 -4.23224,-25.20777 -6.008,-6.25807 -10.02905,-9.41164 -16.31885,-12.79826 -4.59052,-2.47169 -8.9089,-4.63947 -9.5964,-4.81729 -5.43648,-1.4062 7.35797,-5.55657 16.75,-5.4335 7.98929,0.10468 16.69261,3.12775 27.86978,9.68047 5.56961,3.26525 8.13022,5.35458 8.13022,6.63388 0,1.02709 0.96921,4.45788 2.15379,7.62397 2.8398,7.59003 9.11542,13.77705 24.34621,24.00247 6.6,4.431 13.88418,9.8023 16.18707,11.9362 l 4.18707,3.87983 -2.90073,15 c -1.5954,8.25 -3.82408,19.95 -4.95262,26 -2.20964,11.84566 -5.35714,42.7301 -4.62501,45.38237 0.24559,0.8897 0.73661,5.44263 1.09115,10.11763 0.72481,9.55738 3.3391,22.64596 10.11199,50.62627 l 4.62969,19.12627 9.51861,10.37373 c 8.80915,9.60053 9.90002,10.45529 14.6357,11.46804 31.87515,6.81661 43.13936,8.83539 58.11708,10.41582 13.75104,1.45099 18.69683,2.47891 36,7.48214 8.25,2.38549 17.475,4.81135 20.5,5.3908 3.025,0.57944 17.2,1.035 31.5,1.01234 14.3,-0.0226 27.8,0.16055 30,0.40712 2.2,0.24657 9.4,0.76705 16,1.15663 l 12,0.70832 8,-4.02575 c 14.42262,-7.25771 22.7146,-15.82956 39.78855,-41.13148 10.65401,-15.7882 22.28994,-29.13219 30.19525,-34.62767 l 2.98379,-2.07422 -6.39555,-9.6991 c -3.51755,-5.3345 -6.88525,-9.51094 -7.48379,-9.28098 -0.59854,0.22997 -8.62575,6.11873 -17.83825,13.08613 -9.2125,6.9674 -16.75,12.14413 -16.75,11.50385 0,-2.61972 13.36317,-28.70246 19.57687,-38.21087 3.66876,-5.61407 11.96383,-16.97027 18.43348,-25.23602 l 11.763,-15.02863 -3.75306,-18.97137 c -2.06419,-10.43425 -3.70069,-19.02862 -3.63668,-19.09858 0.064,-0.07 6.1045,-3.84686 13.4233,-8.39309 7.3188,-4.54623 12.9438,-8.58922 12.5,-8.98443 -2.88606,-2.57003 -27.47522,-18.55624 -32.24844,-20.96576 -7.47258,-3.77214 -11.48123,-3.94036 -22.90069,-0.96103 -9.23491,2.40938 -9.33213,2.41356 -10.75891,0.46233 -0.79188,-1.08296 -1.93007,-3.78292 -2.52931,-5.99991 -1.58837,-5.87639 0.1059,-11.95966 7.30377,-26.22417 8.46429,-16.77426 8.67046,-19.67402 2.30094,-32.36226 -12.88187,-25.66106 -29.56132,-49.28605 -62.69812,-88.80647 -9.62711,-11.48173 -11.95416,-15.85654 -12.17026,-22.87995 l -0.16533,-5.37317 -27.46253,-16.77161 c -19.42441,-11.86266 -27.7575,-16.45071 -28.47028,-15.67523 -0.55426,0.60302 -5.50775,6.02688 -11.00775,12.05303 -5.5,6.02616 -18.1,19.75355 -28,30.50533 -9.9,10.75178 -21.01105,22.8598 -24.69123,26.90672 l -6.69124,7.35803 -3.96159,-3.13764 C 317.28819,552.51609 302.69188,549.18011 290,552.40298 c -3.575,0.90781 -9.81097,3.21435 -13.8577,5.12565 -4.04674,1.9113 -7.13694,2.91175 -6.86712,2.22323 0.98835,-2.52208 33.76722,-61.19426 34.72043,-62.14747 1.25472,-1.25472 2.18888,-1.38591 15.75308,-2.21237 l 11.24869,-0.68538 4.25131,-4.73503 C 337.58691,487.36734 346.7,477.66955 355.5,468.42097 c 8.8,-9.24858 16.675,-17.55121 17.5,-18.45028 6.46628,-7.04684 6.20637,-6.42756 6.56981,-15.65355 0.19102,-4.84943 0.59367,-14.74485 0.89476,-21.98983 0.54714,-13.16526 0.54603,-13.17381 -1.96425,-15.1484 -1.38144,-1.08664 -9.35166,-8.43393 -17.7116,-16.32731 C 352.42878,372.95822 341.98721,363.125 337.58523,359 333.18325,354.875 325.51327,347.6453 320.54082,342.934 315.56837,338.22271 307.9,331.06098 303.5,327.01906 c -8.87056,-8.14867 -10.60568,-10.0282 -10.0776,-10.91638 0.82383,-1.38558 2.1201,-46.90161 1.35709,-47.65184 -0.15372,-0.15115 -5.67949,-1.24673 -12.27949,-2.43462 -6.6,-1.1879 -12.52548,-2.69 -13.16772,-3.33801 -0.78996,-0.79705 -0.95171,-3.11926 -0.5,-7.17821 l 0.66772,-6 5,-1.27821 c 17.72294,-4.53073 37.30814,0.10086 56.16367,13.28182 6.44939,4.50844 6.59843,4.55556 9.19598,2.9072 1.45219,-0.92153 3.66201,-2.603 4.91071,-3.7366 2.24113,-2.03456 2.28805,-2.03607 3.64444,-0.11765 0.75575,1.06889 5.51794,7.34344 10.58265,13.94344 10.96377,14.28727 14.57084,21.03787 15.99084,29.92671 2.01747,12.62883 3.74433,15.80071 18.996,34.89161 2.46636,3.08721 4.81958,5.27781 5.22938,4.86801 1.45649,-1.45649 2.99446,-16.80363 2.42377,-24.18633 -0.80013,-10.3508 -3.28001,-18.54751 -13.1252,-43.38251 -11.63712,-29.35523 -12.98756,-36.6846 -7.26224,-39.4151 2.26318,-1.07935 3.21521,-1.08058 5.37795,-0.007 2.96697,1.47287 6.16502,9.9438 25.12647,66.55457 9.43543,28.17014 10.67785,31.24307 12.60629,31.17971 5.56443,-0.18281 5.62942,-0.55697 2.19314,-12.62743 l -3.18783,-11.19772 3.8578,-3.85779 3.8578,-3.8578 -5.62236,-21.82523 c -3.0923,-12.00387 -5.83964,-22.39143 -6.1052,-23.08347 -0.32912,-0.85765 2.24386,-1.97857 8.08155,-3.52072 4.71041,-1.24436 8.5572,-2.53182 8.54842,-2.86101 -0.0213,-0.79967 -3.99269,-5.2677 -17.3307,-19.49816 -6.13433,-6.54478 -11.74135,-12.73228 -12.46003,-13.75 -1.88812,-2.6737 -2.55193,-2.34686 -4.87355,2.39962 -1.14333,2.3375 -4.22595,7.15607 -6.85027,10.70794 -4.61522,6.24643 -4.80148,6.37743 -5.6871,4 -0.50358,-1.35187 -0.69081,-7.96122 -0.41607,-14.68746 l 0.49954,-12.22952 -3.68293,-0.97005 C 383.15732,207.53738 377,206.10395 371.5,204.88552 c -5.5,-1.21844 -10.39378,-2.55741 -10.87506,-2.97549 -0.48129,-0.41809 6.69007,-4.40088 15.93634,-8.85065 l 16.81141,-8.09049 3.06366,2.85105 c 1.68501,1.56808 15.14982,13.35863 29.92181,26.20123 l 26.85816,23.35017 -0.61536,5.56433 c -0.33844,3.06038 -0.8694,10.73933 -1.1799,17.06433 -0.82904,16.8881 -2.56873,24.48845 -7.997,34.93726 -4.62365,8.90001 -4.68258,9.13284 -4.20289,16.60729 0.44554,6.94247 1.06713,8.72802 7.38266,21.20697 3.7929,7.49442 7.4274,13.79331 8.07669,13.99753 1.9543,0.61467 9.30416,-6.78531 11.97574,-12.05741 1.37549,-2.7144 3.9757,-10.61795 5.77825,-17.56346 1.80255,-6.9455 4.87341,-15.79251 6.82414,-19.66003 5.19229,-10.29426 6.52489,-16.16775 6.79926,-29.96815 0.16576,-8.33751 2.44451,-20.47758 4.77032,-25.41388 2.343,-4.97279 7.51129,-7.43784 22.17177,-10.57497 13.51088,-2.89114 20.67826,-5.65057 25.69197,-9.89138 C 542.2313,218.62606 548,207.95358 548,204.39929 c 0,-3.6501 1.76803,-3.73751 3.68102,-0.18199 3.14778,5.85053 2.38203,15.6331 -2.09646,26.7827 -4.22864,10.52758 -5.70819,21.33801 -3.70632,27.08056 0.62193,1.78407 1.01625,3.3403 0.87627,3.45831 -0.13998,0.118 -6.34491,-2.25685 -13.78874,-5.27745 l -13.53423,-5.49199 -9.46577,3.99291 c -11.77629,4.96755 -12.79821,6.45292 -11.89353,17.28725 0.8558,10.24901 -0.67275,30.07402 -3.13464,40.6556 -2.88186,12.38666 -6.14942,20.58355 -15.0663,37.79481 -8.95799,17.29061 -13.64733,30.63004 -14.73958,41.92862 l -0.76758,7.94013 4.36034,-4.93438 c 15.29541,-17.30902 29.15088,-45.13071 35.8102,-71.90666 l 2.72887,-10.97228 6.56949,-6.02772 c 3.61323,-3.31524 8.9652,-8.27771 11.89327,-11.02771 l 5.32377,-5 2.03522,-11 c 2.59937,-14.0491 2.29894,-13.34037 5.40342,-12.74691 l 2.64636,0.50589 -0.67438,17.89543 -0.67437,17.89543 -10.9268,19.22508 c -31.60272,55.60315 -42.05318,82.21582 -48.86349,124.43356 l -1.16283,7.20848 5.83339,6.87169 c 3.20837,3.77943 9.8834,11.51409 14.8334,17.18814 4.95,5.67405 10.8,12.43449 13,15.02321 2.2,2.58872 8.05,9.33872 13,15 4.95,5.66128 10.8,12.41128 13,15 2.2,2.58872 8.05,9.34925 13,15.0234 4.95,5.67415 12.375,14.25247 16.5,19.06292 27.82925,32.45362 26.01599,30.65124 31.5,31.31116 2.75,0.33093 10.43899,0.80455 17.08664,1.05249 l 12.08665,0.45081 12.34259,7.29961 c 16.04589,9.48981 22.66,15.72731 31.99296,30.17129 l 7.49116,11.59356 6.10078,0.0174 c 10.99619,0.0313 18.12983,-4.11644 22.96591,-13.35324 l 2.83526,-5.41527 -4.23132,-5.60433 c -2.32722,-3.08239 -4.46644,-6.21708 -4.75383,-6.96599 -0.50789,-1.32355 3.47531,-4.62939 48.8858,-40.57242 9.24144,-7.31472 16.66644,-13.42622 16.5,-13.58111 -0.28862,-0.26861 -5.9121,-0.74126 -24.8026,-2.08465 -4.675,-0.33246 -12.325,-0.96214 -17,-1.39928 l -8.5,-0.7948 -3.5,4.05838 c -13.19073,15.29514 -23.07314,26.99642 -24.40033,28.89125 -0.85452,1.22 -1.78819,1.98366 -2.07482,1.69702 -0.65384,-0.65383 -1.21964,-8.26256 -2.04554,-27.50782 l -0.64708,-15.07845 6.33389,-4.46363 c 3.48363,-2.45499 9.93388,-7.0793 14.33388,-10.27625 10.23624,-7.43742 18.07816,-11.11088 27.59652,-12.92728 4.17809,-0.79731 9.29651,-2.15995 11.37426,-3.0281 5.61317,-2.34532 15.21024,-9.57171 22.30973,-16.79871 l 6.28051,-6.39332 -9.03051,-24.24769 C 760.06373,449.8007 756,438.71337 756,438.49843 c 0,-0.21494 5.47764,1.86082 12.17253,4.6128 l 12.17252,5.00362 8.81287,-8.77204 c 4.84707,-4.82461 8.48194,-9.09725 8.07747,-9.49473 -0.40446,-0.39749 -15.58539,-7.09203 -33.73539,-14.87675 -30.09583,-12.90841 -33.19757,-14.03599 -35.24493,-12.81268 -1.23472,0.73774 -7.94552,5.59108 -14.9129,10.7852 l -12.66796,9.44386 -3.46557,-3.94386 C 687.94712,407.90417 683.45551,391.63492 684.52446,372.5 c 1.18618,-21.23351 0.78752,-19.67802 7.77768,-30.34663 17.93849,-27.37827 39.75474,-45.91136 65.79215,-55.89096 l 9.81637,-3.76241 7.79467,-20.81458 7.79467,-20.81458 12.64134,0.54092 12.64133,0.54091 10.60828,-7.22633 c 5.83455,-3.97449 17.80591,-12.13745 26.60301,-18.13992 l 15.99474,-10.91358 14.66649,1.30695 c 46.62656,4.15497 71.16575,-0.92926 90.38968,-18.72767 10.31248,-9.54778 14.5008,-16.1759 26.38324,-41.75212 5.87705,-12.65 11.07649,-23.39405 11.55439,-23.87566 0.4939,-0.49779 2.5771,2.52291 4.8276,7 12.2401,24.35078 16.2917,50.86452 11.7613,76.96702 -0.8678,5.00024 -3.2032,14.90024 -5.1897,22 -1.9866,7.09975 -3.8261,13.86115 -4.0879,15.02534 -0.7018,3.12105 7.2281,6.76962 14.3976,6.62436 6.8599,-0.139 13.3079,-3.09796 26.8744,-12.33257 17.8557,-12.15419 29.3216,-27.55972 49.4719,-66.4705 5.1091,-9.86589 9.4131,-18.09788 9.5644,-18.2933 0.1514,-0.19542 2.8974,-0.051 6.1024,0.32101 l 5.8272,0.67632 -0.3864,7.65085 c -0.4293,8.50294 0.6413,15.72219 5.0732,34.20713 2.2358,9.32517 2.9988,14.91287 3.0041,22 0.01,10.77193 0.8849,7.49562 -15.3894,57.5 l -11.0656,34 -17.9291,13.39524 c -9.8611,7.36739 -17.7963,13.97975 -17.6339,14.69414 0.1625,0.71439 3.2351,4.36153 6.828,8.10475 3.593,3.74323 13.266,14.00587 21.4957,22.80587 8.2296,8.8 15.7524,16.58802 16.7173,17.3067 0.9649,0.71869 1.7544,1.72532 1.7544,2.23696 0,0.51164 -4.6756,6.943 -10.3903,14.2919 -8.3685,10.76179 -10.2967,13.85114 -9.9093,15.87735 0.2645,1.38364 -0.2383,7.03902 -1.1172,12.5675 -1.9593,12.32377 -1.0221,18.1813 3.9513,24.69681 4.6146,6.04543 5.2828,10.34891 2.4468,15.75822 -7.8055,14.88823 -9.9045,25.94901 -10.5516,55.60307 -0.5838,26.75133 -1.8494,39.86282 -4.0865,42.33472 -0.8338,0.92134 -4.5146,2.92067 -8.1796,4.44295 -7.5402,3.1319 -11.9722,5.88367 -14.1636,8.79414 -2.1737,2.88695 -3.6795,8.41348 -3.1938,11.72237 0.3996,2.72306 0.6792,2.86937 5.5573,2.90818 8.6058,0.0685 27.0086,0.99093 29.2133,1.46435 1.8287,0.39268 3.4672,-2.38877 13.7131,-23.27963 6.3999,-13.04907 14.2901,-30.70059 17.5337,-39.22559 15.9276,-41.86114 34.4702,-73.34662 60.0706,-102 l 4.0205,-4.5 0.043,17.75817 0.043,17.75817 -6.089,7.24183 c -3.349,3.98301 -10.5642,13.87554 -16.0337,21.98341 -5.4696,8.10787 -12.1704,17.6821 -14.8907,21.27606 -5.8677,7.75242 -7.7044,13.50209 -8.4223,26.36571 -0.7686,13.77066 -1.2376,15.47037 -7.8962,28.61665 -15.5674,30.73472 -33.2304,49.85917 -52.3981,56.73346 -5.353,1.91979 -6.2861,2.61559 -6.3804,4.7576 -0.061,1.37992 -0.2278,4.98394 -0.3714,8.00894 -0.8153,17.17443 -0.9568,24.89268 -0.4653,25.38513 0.3041,0.3047 3.9352,-0.75935 8.069,-2.36454 4.1339,-1.60519 14.0101,-4.78966 21.9471,-7.07661 7.9371,-2.28695 18.1438,-5.88086 22.6817,-7.98647 12.7768,-5.9286 21.3964,-15.66965 25.24,-28.52415 1.1624,-3.88742 1.0319,-4.43283 -2.9617,-12.37566 -2.2977,-4.56996 -3.8067,-8.6676 -3.3533,-9.10587 0.4533,-0.43827 3.7493,-1.5388 7.3243,-2.44564 6.7167,-1.70377 14.4551,-5.19361 21.6311,-9.75518 l 4.1312,-2.62602 -6.3339,-20.27642 c -3.4836,-11.15203 -6.2213,-20.38899 -6.0837,-20.52657 0.3956,-0.39563 19.5877,-8.322 20.15,-8.322 0.2779,0 0.5053,20.41726 0.5053,45.37169 v 45.3717 l -5.1205,7.8783 c -3.5583,5.47477 -11.5668,14.35267 -26.25,29.09991 l -21.1295,21.22161 -9.5,0.99317 c -14.0475,1.46858 -38.4514,4.32048 -52,6.07685 -4.125,0.53474 -11.775,1.46752 -17,2.07284 -18.4581,2.13839 -16.2996,1.13318 -34.1716,15.91393 -49.85809,41.23448 -59.41239,52.71762 -66.43373,79.8455 -3.12098,12.05837 -5.81344,17.94887 -11.85036,25.92599 -5.86796,7.75385 -15.25972,14.57827 -25.1301,18.26051 -4.12939,1.54052 -8.04938,3.20722 -8.7111,3.70379 -0.66171,0.49657 -4.57811,3.63377 -8.70311,6.97154 l -7.5,6.06869 -7,-0.28759 c -3.85,-0.15818 -15.1,-0.58875 -25,-0.95681 -11.75527,-0.43705 -18.38031,-1.07901 -19.09623,-1.85042 -0.99652,-1.07377 -7.41197,-29.17905 -9.00076,-39.4312 -0.36224,-2.3375 -1.02831,-4.25 -1.48015,-4.25 -1.37111,0 -12.30731,15.74757 -13.67034,19.68459 -1.59596,4.60981 -0.94645,8.3164 3.52433,20.11277 l 3.52367,9.29737 -3.03831,3.20263 c -5.81299,6.1274 -6.57539,8.86396 -6.67314,23.95259 l -0.0891,13.74994 4,0.11136 c 2.2,0.0612 5.575,0.21483 7.5,0.34129 1.925,0.12647 8.77869,0.33794 15.23041,0.46995 6.45173,0.132 12.90507,0.55415 14.34075,0.93811 3.29464,0.88112 5.8782,6.74745 16.02618,36.38953 8.32197,24.30837 13.44475,36.7169 18.98505,45.98611 4.07691,6.82089 14.057,19.76376 15.2396,19.76376 0.40468,0 3.51863,-2.8125 6.91988,-6.25 l 6.18409,-6.25 -2.99086,-4.44199 c -1.64497,-2.44309 -3.70815,-6.9094 -4.58484,-9.92511 -1.4674,-5.04769 -1.46128,-6.16409 0.0771,-14.05801 0.91908,-4.71619 2.15485,-10.2113 2.74614,-12.21136 l 1.07508,-3.63648 7.62572,3.5079 c 4.19415,1.92934 10.41617,4.77454 13.82672,6.32266 l 6.20098,2.81476 -0.98852,-2.60002 c -0.54369,-1.43002 -2.9917,-6.4638 -5.44001,-11.18619 -6.89036,-13.29035 -12.66783,-18.68085 -25.86264,-24.1304 -7.50631,-3.10016 -18.70754,-10.71317 -26.8608,-18.25618 -5.01795,-4.64236 -4.96946,-7.56569 0.19332,-11.65469 3.87965,-3.07274 4.04516,-3.10713 10.25,-2.12952 3.46868,0.54651 11.48168,1.73548 17.80668,2.64217 6.325,0.90669 14.86242,2.24197 18.97204,2.96728 4.10963,0.72532 7.76334,1.13872 8.11937,0.91868 0.35603,-0.22003 1.67613,-6.00907 2.93355,-12.86452 1.25742,-6.85545 2.58405,-12.94634 2.94805,-13.53531 0.40184,-0.65019 5.54586,-1.14773 13.09441,-1.26653 13.59035,-0.21388 17.54228,0.93167 22.85689,6.62554 1.33338,1.42853 2.72877,2.59732 3.10087,2.59732 0.37211,0 3.55774,-2.18112 7.0792,-4.84692 l 6.40262,-4.84693 6.98,5.2895 6.9801,5.28949 11.5164,-6.10507 c 6.3341,-3.35778 12.326,-6.65219 13.3153,-7.3209 1.6411,-1.10921 0.9686,-2.25693 -7.6684,-13.0875 l -9.4673,-11.87167 0.3729,-6 c 0.205,-3.3 0.4353,-10.275 0.5117,-15.5 0.2101,-14.37113 -1.0041,-13.26396 13.7959,-12.58077 6.961,0.32134 18.9564,0.8203 26.6564,1.10882 7.7,0.28851 18.275,0.71524 23.5,0.94828 5.225,0.23304 17.0063,0.70761 26.1807,1.05461 l 16.6806,0.63089 0.8912,-3.33091 c 1.3843,-5.17417 0.476,-13.23912 -2.3795,-21.12888 -4.8076,-13.28303 -6.4721,-20.04841 -5.823,-23.66748 0.7432,-4.14449 2.9636,-8.74557 5.6295,-11.66556 l 1.9455,-2.131 8.1875,3.46579 c 13.8698,5.87115 31.9259,8.09598 43.6875,5.38307 2.475,-0.57088 5.0625,-1.04897 5.75,-1.06241 0.9838,-0.0192 1.25,10.72918 1.25,50.47555 0,27.775 -0.3375,50.49426 -0.75,50.48723 -0.4125,-0.007 -4.2279,-1.12352 -8.4786,-2.48112 -5.6894,-1.81705 -10.175,-2.50272 -17,-2.59858 -8.7297,-0.12262 -18.7714,1.4922 -18.7714,3.01864 0,0.75231 20.7377,6.05867 33.5,8.57199 12.6581,2.49278 11.5,1.1767 11.5,13.06923 V 879 l -5.25,0.0156 c -5.3583,0.0159 -16.2753,2.16754 -17.5461,3.45811 -1.1086,1.12583 9.7757,10.66544 16.5738,14.52627 l 6.1628,3.5 0.03,27.14469 0.03,27.14469 -3.75,-0.87083 c -2.0625,-0.47896 -11.4742,-0.88157 -20.915,-0.89469 L 1150.17,953 l -7.335,-3.86143 c -14.0043,-7.37238 -17.835,-7.49301 -17.835,-0.56161 0,4.44951 4.3333,16.18828 6.6501,18.01508 1.0174,0.80224 5.3238,3.50378 9.5697,6.00342 10.5325,6.20064 17.2403,12.42393 19.3525,17.95472 0.9441,2.47192 1.4833,4.7275 1.1985,5.0124 -0.2849,0.28489 -2.7124,0.86989 -5.3944,1.3 -3.1707,0.50848 -8.899,3.09022 -16.3764,7.38072 -17.6747,10.1418 -27.9932,12.7388 -37,9.3123 -1.925,-0.7323 -10.025,-3.457 -18,-6.0549 -20.4227,-6.6527 -25.1607,-9.41747 -32.9904,-19.25111 -2.1625,-2.716 -5.5921,-5.62981 -7.7037,-6.54507 -6.2923,-2.72739 -22.3059,-8.5165 -22.3059,-8.06386 0,0.23204 6.6811,12.01872 14.847,26.19262 l 14.847,25.77072 -2.597,3.0126 c -3.3903,3.9329 -7.6716,6.8055 -12.4582,8.3589 -4.034,1.3091 -22.0077,1.6448 -28.5832,0.5339 -4.3975,-0.743 -15.18984,0.9915 -19.25741,3.095 -2.47096,1.2777 -2.64576,1.674 -1.54247,3.4965 0.68435,1.1305 6.28874,6.2969 12.45419,11.4808 11.75449,9.8832 15.85249,15.2296 17.46359,22.7838 0.8224,3.856 1.7005,4.7885 10.0562,10.6797 18.0466,12.7237 35.6327,30.3788 67.1913,67.4548 7.0223,8.25 17.2947,19.6125 22.8276,25.25 l 10.0598,10.25 h -15.6237 -15.6238 l -4.9394,-7.3199 c -7.9257,-11.7454 -16.4654,-22.0114 -26.8537,-32.2821 -11.9609,-11.8256 -22.5822,-19.8666 -39.6121,-29.9888 -16.4844,-9.7979 -20.3914,-13.3976 -25.7298,-23.7066 -5.60043,-10.8149 -11.74275,-19.855 -22.57112,-33.2198 -12.01091,-14.8243 -20.31048,-25.808 -24.76807,-32.7782 -4.38942,-6.8636 -11.81579,-21.66 -13.52865,-26.9546 -0.66724,-2.0625 -1.51577,-3.7333 -1.88561,-3.7129 -0.36985,0.02 -5.39745,6.0901 -11.17245,13.4881 l -10.5,13.4509 -5.5,-6.1347 c -18.31161,-20.4245 -38.88423,-50.58701 -49.63487,-72.77195 -4.14965,-8.5632 -7.85619,-16.18937 -8.23675,-16.94705 -0.49181,-0.97915 -3.47707,-1.49867 -10.3212,-1.79619 l -9.62926,-0.41858 0.45876,4.29619 c 0.25232,2.3629 1.16327,9.6077 2.02434,16.09955 0.86106,6.49186 1.38708,11.98186 1.16894,12.2 -0.21814,0.21814 -5.55662,-3.67227 -11.86329,-8.64536 -6.30667,-4.9731 -12.35329,-9.67489 -13.43693,-10.44842 -1.88664,-1.34676 -1.71985,-1.65948 3.93043,-7.36934 l 5.90068,-5.9629 -7.37331,-15.78868 c -4.05532,-8.68377 -7.67987,-16.15953 -8.05455,-16.6128 -0.86063,-1.04114 -13.49436,7.07231 -17.26318,11.08651 -3.41579,3.63819 -4.43374,9.37948 -2.50228,14.11298 l 1.36715,3.35049 5.48266,-4.26719 c 3.01546,-2.34695 6.09249,-4.74215 6.83783,-5.32265 1.13017,-0.88023 1.26068,0.93024 0.78601,10.90426 -0.31305,6.57785 -0.58537,13.18498 -0.60518,14.68251 l -0.036,2.72278 -11.75,-0.56859 c -6.4625,-0.31273 -11.78812,-0.63798 -11.83472,-0.72278 -0.51574,-0.93866 -26.02312,-35.50144 -26.92509,-36.48378 -0.9891,-1.07724 -2.5096,0.48854 -8.01145,8.25 -3.73486,5.26878 -6.88891,9.57959 -7.00901,9.57959 -0.12009,0 -1.94346,-1.58015 -4.05194,-3.51144 -11.15735,-10.21973 -19.14918,-10.32489 -45.16901,-0.59436 l -8.25122,3.08567 -9.57661,-12.98462 c -9.517,-12.9038 -9.61192,-12.99446 -15.24878,-14.56344 -3.11969,-0.86834 -8.37217,-2.42471 -11.67217,-3.45858 -3.3,-1.03388 -13.08817,-3.913 -21.75149,-6.39804 l -15.7515,-4.51827 -13.55548,6.11456 c -7.45552,3.36301 -13.19235,6.42066 -12.74851,6.79477 0.44384,0.37412 9.58198,4.43194 20.30698,9.01739 10.725,4.58545 19.87878,8.66628 20.34174,9.06851 0.46296,0.40224 -3.72227,6.45256 -9.30052,13.44517 l -10.14227,12.71383 11.30053,7.93089 c 6.21528,4.36199 14.98249,10.495 19.48269,13.62892 4.50019,3.13392 7.95635,5.93002 7.68036,6.21354 -0.27599,0.28353 -6.55907,2.54521 -13.9624,5.02597 l -13.46059,4.51048 4.56243,9.374 c 2.50933,5.1557 4.413,9.52341 4.23038,9.70603 -0.18262,0.18262 -3.00961,1.51445 -6.28219,2.95961 -9.5652,4.22391 -18.73193,10.89681 -26.90626,19.58611 -4.19377,4.458 -7.48349,8.247 -7.3105,8.42 0.17299,0.173 4.35375,-0.3062 9.29057,-1.065 17.63476,-2.7104 36.12234,-5.4024 45.14501,-6.5735 l 9.16898,-1.1901 2.85496,-7.5858 2.85497,-7.5858 4.97606,0.021 c 2.73683,0.012 11.36894,0.2218 19.18247,0.4668 l 14.20642,0.4454 14.2302,-13 c 7.82662,-7.15 17.85873,-16.4784 22.29358,-20.72978 l 8.06338,-7.72978 11.3939,0.19511 c 8.08834,0.13851 11.79072,0.59193 12.76169,1.5629 2.06529,2.06528 0.81558,18.01639 -2.06079,26.30359 -4.58719,13.21636 -15.64723,25.60726 -35.52327,39.79796 L 704,1038.0906 l 0.0153,10.2047 c 0.008,5.6126 0.34592,10.6711 0.75,11.2411 0.40408,0.57 2.53469,1.1582 4.73469,1.307 2.2,0.1488 4.69453,0.4707 5.5434,0.7154 1.11612,0.3217 2.76493,-2.0473 5.95571,-8.557 2.42677,-4.951 4.67605,-9.0018 4.99839,-9.0018 0.32235,0 2.55468,2.0059 4.96074,4.4574 l 4.37466,4.4575 3.45004,-3.0292 c 1.89752,-1.666 4.97262,-3.7552 6.83355,-4.6426 3.12619,-1.4908 3.65021,-1.4863 6.89035,0.059 1.92877,0.9197 4.37364,3.0976 5.43306,4.8397 l 1.92621,3.1674 -2.55971,3.3559 c -1.40784,1.8458 -5.31522,5.4433 -8.68306,7.9944 -9.22415,6.9872 -19.65928,11.3747 -37.62334,15.8188 -3.575,0.8845 -11.45,2.975 -17.5,4.6456 l -11,3.0375 -22.22124,-12.3306 c -12.22168,-6.7818 -22.22735,-12.5556 -22.23482,-12.8306 -0.007,-0.275 4.02959,-2.0726 8.97124,-3.9947 4.94165,-1.9221 8.98482,-3.7399 8.98482,-4.0394 0,-0.4597 -10.99273,-4.9285 -32.01533,-13.0149 l -4.51533,-1.7368 -13.31287,6.3588 c -10.85121,5.1831 -13.21976,6.6888 -12.80933,8.1429 0.27695,0.9813 0.79676,3.2414 1.15514,5.0226 0.35838,1.7812 1.01546,3.4634 1.46019,3.7383 0.44473,0.2749 4.69327,-1.295 9.4412,-3.4885 4.74793,-2.1936 9.02193,-3.9883 9.49778,-3.9883 0.47585,0 4.82718,6.3257 9.66962,14.057 4.84244,7.7314 9.11214,14.2472 9.48823,14.4796 0.37608,0.2325 5.0657,1.0809 10.42137,1.8855 5.35566,0.8045 9.86921,1.6012 10.03011,1.7704 0.1609,0.1691 7.77948,12.7815 16.93018,28.0275 l 16.63764,27.72 5.62117,-2.4859 c 3.09164,-1.3673 8.23375,-3.6584 11.42691,-5.0914 l 5.80575,-2.6055 4.9106,4.1114 c 13.36123,11.1866 29.01465,30.5757 39.05985,48.3814 l 3.2439,5.75 h -11.91446 -11.91446 z m 294.60374,-163.874 c -1.0923,-1.8568 -5.3182,-11.2678 -9.3909,-20.9134 -8.7784,-20.79051 -13.5679,-28.73483 -22.18235,-36.79319 -5.78758,-5.41399 -22.02303,-15.00167 -23.27807,-13.74662 -0.2512,0.2512 3.62108,6.4093 8.60507,13.68467 4.98398,7.27538 8.86933,13.53936 8.63411,13.91996 -0.88068,1.42496 -8.38272,0.16513 -13.80856,-2.3189 -4.04683,-1.8527 -6.51994,-3.84949 -8.83414,-7.13266 -1.76767,-2.50781 -4.02988,-4.81862 -5.02715,-5.13514 -2.19678,-0.69724 -5.81321,0.32853 -5.81321,1.64887 0,1.73923 8.16946,17.32894 11.61435,22.16355 3.62572,5.0884 9.4398,10.70015 15.27856,14.74686 3.95623,2.742 45.42529,24.0151 45.89619,23.5442 0.1607,-0.1607 -0.6016,-1.8114 -1.6939,-3.6682 z M 230.25115,976.99967 c 5.66966,-7.00465 11.00163,-12.50786 13.77814,-14.22061 8.36946,-5.16289 28.43462,-9.7753 42.53541,-9.77769 8.49428,-10e-4 40.99062,2.8349 62.9353,5.4931 7.15,0.8661 16.7125,2.00915 21.25,2.54013 16.15326,1.89023 25.85985,3.03589 33.75,3.9835 4.4,0.52844 11.15,1.25005 15,1.60359 3.85,0.35353 7.68201,1.23256 8.51558,1.95339 2.7787,2.40289 14.42337,7.36903 19.98875,8.52467 3.02262,0.62764 16.74567,1.29295 30.49567,1.47847 13.75,0.18551 26.57203,0.80631 28.4934,1.37954 1.92137,0.57323 3.94637,1.03846 4.5,1.03384 0.57722,-0.005 1.1356,-3.83012 1.30901,-8.96779 0.36231,-10.73411 2.47022,-9.69793 -21.30241,-10.4716 -9.35,-0.30429 -18.48903,-0.77232 -20.30895,-1.04007 -1.81992,-0.26774 -14.64492,-0.934 -28.5,-1.48057 -32.15331,-1.26842 -37.1696,-2.12909 -60.29991,-10.3459 -5.70902,-2.02807 -10.4255,-2.74296 -23.95193,-3.63046 -17.97598,-1.17944 -26.02151,-2.76261 -33.79387,-6.64983 -7.40298,-3.70248 -11.27132,-3.4235 -21.11784,1.52302 -17.28416,8.68292 -26.02912,6.82258 -50.5275,-10.74882 -5.775,-4.1421 -10.59682,-7.58632 -10.71515,-7.65382 -0.11834,-0.0675 0.92928,-2.95607 2.32803,-6.41903 3.47109,-8.59355 5.08333,-22.25826 3.25289,-27.57017 -1.55006,-4.49826 -7.35681,-9.20385 -9.33338,-7.56344 -0.64472,0.53507 -4.74076,6.36584 -9.10231,12.95727 -4.36154,6.59142 -8.15508,11.99595 -8.43008,12.01007 -0.47281,0.0243 -3.43229,-2.65897 -15.78966,-14.3158 l -5.28966,-4.98979 -2.11055,2.11055 -2.11055,2.11055 16.13021,30.50666 16.1302,30.50666 -4.57867,19.31535 c -2.51827,10.62345 -4.82266,19.76536 -5.12086,20.31536 -1.30629,2.40928 3.42444,-2.91705 11.99069,-13.50033 z m 851.56475,-5.33207 c 2.4771,-1.92362 4.1052,-6.41837 5.539,-15.29108 l 1.4344,-8.87652 -3.1447,-2.39833 c -4.0268,-3.07121 -24.7302,-23.97712 -39.9835,-40.37465 -12.7551,-13.712 -12.7892,-13.73076 -21.1686,-11.6208 l -4.3932,1.10621 15.8062,17.14379 c 52.1519,56.56521 49.1284,53.07616 46.773,53.97587 -3.0225,1.15447 -9.9444,0.0831 -14.5094,-2.24582 -2.1035,-1.07312 -8.0263,-6.50836 -13.1618,-12.07832 -5.1355,-5.56997 -10.5907,-10.77538 -12.1226,-11.56758 -4.206,-2.17499 -9.1756,-1.82883 -11.6237,0.80963 -2.2484,2.42315 -2.5624,3.53279 -2.3795,8.40731 0.1122,2.99014 0.877,3.58375 14.4448,11.21109 17.3935,9.77803 22.671,12.13817 29.1737,13.04672 5.2046,0.72719 7.0999,0.47338 9.3159,-1.24752 z m -851.52428,-169.29409 4.57076,-0.62649 -4.94711,-5.94456 c -8.97299,-10.78213 -11.95555,-19.23166 -9.88851,-28.01387 1.63995,-6.96763 3.92305,-11.40553 11.58801,-22.52488 l 6.3669,-9.2363 -4.92472,-10.70112 c -5.25399,-11.41661 -6.40896,-12.57227 -13.78622,-13.79443 -6.11205,-1.01257 -10.36321,0.7767 -19.64,8.26628 -4.4719,3.61037 -9.59323,7.4272 -11.38073,8.48186 -1.7875,1.05465 -3.25,2.12251 -3.25,2.37301 0,0.2505 1.37796,1.89355 3.06213,3.65122 5.36386,5.59794 14.81437,20.75212 17.83768,28.60325 3.12404,8.11269 6.10019,20.92539 6.10019,26.26204 0,2.66959 1.02029,4.20338 5.68235,8.54216 3.12529,2.90857 6.21248,5.28832 6.86043,5.28832 0.64794,0 3.23492,-0.28192 5.74884,-0.62649 z m 334.6073,-179.9391 c 0.23935,-0.23935 -0.90379,-2.12251 -2.54032,-4.1848 C 560.72208,616.18733 533.31878,580.975 501.4624,540 l -57.92071,-74.5 -3.25789,-16.42962 c -1.79184,-9.0363 -3.15122,-16.53243 -3.02084,-16.65808 0.13037,-0.12565 5.53452,2.9452 12.00922,6.82411 6.4747,3.87891 11.94299,6.87504 12.15175,6.65807 0.36966,-0.38419 2.00374,-35.63476 1.90842,-41.16886 -0.0263,-1.52591 -0.26566,-2.99226 -0.53195,-3.25855 -0.2663,-0.2663 -7.31683,-2.67833 -15.66786,-5.36006 l -15.18368,-4.87589 -2.39327,4.13444 c -1.3163,2.27394 -3.41946,6.27194 -4.67369,8.88444 -1.25424,2.6125 -2.59008,4.75 -2.96854,4.75 -0.37847,0 -12.30716,-15.8625 -26.50821,-35.25 -14.20104,-19.3875 -31.5241,-42.95255 -38.49568,-52.36677 l -12.6756,-17.11677 -9.86693,0.4413 c -5.42682,0.24272 -10.40792,0.61038 -11.06911,0.81703 -0.78637,0.24578 0.11758,2.72763 2.61345,7.17547 2.0986,3.73986 6.01457,10.79144 8.70217,15.67019 5.42918,9.85547 12.03266,17.37086 17.96815,20.44947 6.5735,3.40954 19.78073,14.67612 25.63831,21.87109 6.58208,8.08486 13.31612,18.40545 17.70466,27.13417 l 3.18012,6.32517 -0.65191,16.67483 c -0.35855,9.17115 -0.73713,18.70435 -0.8413,21.18489 -0.17154,4.08473 -1.31688,6.01803 -12.14485,20.5 -24.43597,32.68212 -39.89039,45.16124 -63.27503,51.09323 -5.19643,1.31819 -12.20285,2.40203 -15.56982,2.40855 l -6.12178,0.0118 4.5,4.23816 C 322.45191,536.69827 333.89789,547 334.70805,547 c 0.52187,0 2.18669,-6.42861 3.6996,-14.2858 l 2.75074,-14.2858 5.72698,-2.22069 c 8.5024,-3.29687 20.0039,-11.26257 28.84935,-19.98044 6.69447,-6.59792 22.79212,-25.43055 27.57853,-32.26411 1.45136,-2.0721 1.69361,-1.96471 15.61978,6.92438 16.60065,10.59621 16.93813,10.84958 28.34776,21.28319 10.60833,9.70086 13.05704,13.9556 12.84069,22.31121 l -0.15583,6.01806 10.76717,9.65346 c 31.86487,28.56888 48.91621,48.7356 62.61523,74.05541 6.92997,12.80861 10.27125,16.19641 18.64548,18.90508 2.36599,0.76529 11.96606,0.2598 12.90539,-0.67954 z m 349.17605,-80.98944 c 6.92341,-5.08225 11.80033,-10.95887 22.35153,-26.93329 5.09014,-7.70642 10.63205,-15.47418 12.31536,-17.26168 2.91834,-3.09898 3.40492,-3.25 10.47144,-3.25 h 7.41088 l 9.93791,-12.16491 c 5.46585,-6.6907 10.46362,-12.87749 11.10615,-13.74843 0.64253,-0.87093 1.42996,-1.32179 1.74985,-1.0019 0.31989,0.31989 2.00068,5.49418 3.73509,11.49843 1.73442,6.00424 3.53448,11.34431 4.00015,11.86681 0.47124,0.52875 0.86371,-2.57522 0.88509,-7 0.0459,-9.49085 0.90801,-29.81289 1.43213,-33.75726 0.20516,-1.544 0.0578,-2.669 -0.32744,-2.5 -0.38526,0.16899 -7.21256,3.85801 -15.17179,8.19781 -17.72009,9.66195 -24.89621,14.4728 -40.9385,27.44504 -11.817,9.55555 -12.56311,9.99448 -14.30664,8.4166 -2.31509,-2.09512 -1.96069,-3.52044 3.87846,-15.5983 l 4.61844,-9.55291 27.01071,-20.12824 c 14.8559,-11.07053 27.33554,-19.75575 27.73254,-19.30049 0.397,0.45526 1.74425,3.41525 2.99389,6.57775 2.17627,5.50757 2.42528,5.75209 5.90588,5.79951 1.9987,0.0272 7.5798,0.24905 12.4025,0.49293 l 8.7686,0.44342 7.6459,-6.24293 c 4.2053,-3.43361 10.1478,-8.27822 13.2055,-10.76579 l 5.5596,-4.52286 1.1638,-8.78168 c 0.64,-4.82992 1.4672,-9.09463 1.8381,-9.47713 0.3708,-0.38251 5.0338,-2.08185 10.3621,-3.77631 5.3283,-1.69445 9.6254,-3.49445 9.5492,-4 -0.1232,-0.81657 -18.6616,-58.66601 -20.0028,-62.41916 -0.3248,-0.90889 -2.5088,2.4407 -5.5422,8.5 -2.7534,5.5 -5.6066,10.94809 -6.3405,12.10686 l -1.3344,2.10686 -12.6036,-3.22306 c -6.932,-1.77268 -12.7795,-3.3989 -12.9944,-3.61381 -0.2149,-0.21491 4.5511,-7.07392 10.5911,-15.24223 6.04,-8.16832 10.7599,-15.07348 10.4886,-15.3448 -0.2714,-0.27132 -1.7601,-0.49142 -3.3083,-0.48912 -1.5482,0.002 -5.203,-0.21249 -8.1219,-0.47732 l -5.3069,-0.48152 0.4259,-13.41125 0.4259,-13.41125 -3.869,2.17446 c -2.1279,1.19595 -3.9135,2.4291 -3.9681,2.74032 -0.392,2.2361 -0.7962,8.41804 -1.3121,20.06586 -0.8172,18.45084 -1.5212,23.62891 -3.4495,25.37402 -1.4722,1.33231 -3.3744,0.82214 -18.14191,-4.86555 L 970.5,326.15454 l 0.13733,-5.07381 c 0.17528,-6.47572 4.73055,-16.22429 14.12206,-30.2221 3.84363,-5.72884 8.3777,-13.16822 10.0757,-16.53195 2.66372,-5.27679 5.13255,-15.07557 5.15736,-20.46948 0.0168,-3.59342 -35.63322,-17.04043 -56.66125,-21.37252 -15.65223,-3.2246 -27.64979,-4.35581 -54.4744,-5.1362 l -20.64321,-0.60057 -15.35679,9.28665 c -8.44624,5.10765 -15.93287,9.80651 -16.63694,10.4419 -1.02329,0.92346 0.13853,4.3438 5.7903,17.04637 3.88874,8.74011 7.16481,15.97792 7.28014,16.08403 0.11534,0.10611 2.82626,-0.26176 6.02428,-0.81748 4.79524,-0.83328 5.69665,-1.29783 5.1419,-2.6499 C 858.95968,272.4914 853,254.54386 853,253.68434 c 0,-0.8178 8.8279,-0.65889 45.52576,0.81954 5.97013,0.24051 7.4854,0.68637 10.08493,2.96742 1.68254,1.4764 7.05277,4.82569 11.93385,7.44285 11.63168,6.23675 14.90306,10.14141 14.93335,17.82422 l 0.0221,5.60737 -9.5,4.14086 c -5.225,2.27747 -9.5,4.58543 -9.5,5.12879 0,0.54336 2.63333,6.86758 5.85185,14.05381 l 5.85184,13.06588 8.42592,4.86904 c 4.63425,2.67796 8.30092,5.33553 8.14815,5.9057 C 944.20901,337.63251 925.73887,369 925.05771,369 c -0.38967,0 -3.00158,-2.8125 -5.80424,-6.25 -9.81631,-12.03985 -12.09339,-13.71607 -22.19803,-16.34058 C 879.66772,341.89327 872.45712,335.43698 859.74266,313 c -3.77701,-6.66523 -11.34094,-13.92719 -25.4835,-24.46617 l -12.62858,-9.41077 -4.56529,3.83809 c -2.51091,2.11094 -5.60418,4.95284 -6.87393,6.31534 l -2.30865,2.47726 2.80865,0.6863 c 5.69766,1.39225 10.37278,5.86195 17.80548,17.02313 8.05258,12.09202 11.9649,15.57931 21.93635,19.55325 8.99297,3.58398 17.73242,12.4766 29.68002,30.20021 5.53374,8.209 12.31071,17.93098 15.05992,21.60441 10.53825,14.08091 15.76267,26.563 16.3985,39.17895 0.478,9.4844 0.0252,10.27109 -5.11593,8.88886 -9.0064,-2.42142 -17.16402,-9.38723 -21.7858,-18.60296 -1.3201,-2.63224 -3.87101,-8.8359 -5.66869,-13.7859 -1.79768,-4.95 -4.15806,-10.76698 -5.24529,-12.92663 -2.57789,-5.12064 -10.17835,-13.13113 -20.75592,-21.87565 -10.73188,-8.8721 -17.96264,-16.58098 -22.19029,-23.65762 -2.70069,-4.52066 -3.81574,-5.5516 -6.05971,-5.6026 -1.5125,-0.0344 -5.81726,-0.14688 -9.56613,-0.25 L 808.36774,332 l -2.93387,-6.19121 c -4.0842,-8.6187 -11.49594,-16.00438 -18.34313,-18.27865 -7.48524,-2.4862 -18.41117,-1.66366 -33.28088,2.50549 L 742.11973,313.3133 723.30986,328.40665 704.5,343.5 704.4646,349 c -0.028,4.34862 -0.95711,7.48875 -4.43828,15 -5.70083,12.30056 -6.2483,17.65109 -2.61754,25.58171 1.47725,3.22675 3.00043,5.36093 3.45678,4.84343 0.44872,-0.50883 6.62503,-12.94357 13.72514,-27.63275 7.10012,-14.68919 13.15536,-26.72669 13.45609,-26.75 0.30073,-0.0233 2.34079,4.21794 4.53346,9.42502 l 3.98667,9.46741 4.46654,-2.98392 c 6.51706,-4.35379 15.58012,-6.92332 22.5505,-6.39345 7.8497,0.59673 18.95185,6.19866 33.40378,16.85492 17.04066,12.56508 16.29604,12.30851 38.01226,13.09779 10.175,0.36981 18.88713,1.04094 19.3603,1.49141 0.47316,0.45046 6.66202,13.79689 13.75302,29.65873 l 12.89272,28.8397 -3.45638,7 c -4.57313,9.26172 -10.5658,15.87528 -22.59694,24.93821 -10.33921,7.78842 -15.89877,10.15678 -21.65106,9.22332 -1.79883,-0.29191 -7.66508,-2.65579 -13.03613,-5.25307 -8.99361,-4.34904 -16.82947,-6.17612 -18.65675,-4.35017 -0.43531,0.435 22.52655,51.41037 23.67524,52.55906 0.1524,0.1524 3.56474,-5.09916 7.58297,-11.67013 C 836.88522,505.37625 840.45005,500 840.78883,500 c 0.33877,0 2.08144,1.4204 3.87259,3.15645 2.88835,2.7995 3.45358,2.9974 4.99822,1.75 0.95787,-0.77355 8.76094,-7.48145 17.34015,-14.90645 8.57921,-7.425 17.09761,-14.75782 18.92979,-16.29517 2.93895,-2.46601 3.85828,-4.58564 7.80702,-18 2.46169,-8.36265 4.66776,-15.40708 4.90238,-15.65429 C 899.27323,439.38231 920,460.2784 920,461.58606 c 0,0.61699 -2.03447,5.47544 -4.52105,10.79657 -6.07387,12.99773 -8.02948,21.45838 -6.52735,28.23958 0.62405,2.81721 2.47084,7.22919 4.10398,9.80438 l 2.96935,4.68217 -9.01247,16.5868 C 902.05561,540.81829 898,548.66315 898,549.12857 c 0,1.35907 10.76781,-3.78779 16.07497,-7.6836 z M 1094.1844,281.33793 c 4.4059,-2.7267 4.4966,-3.19954 5.3434,-27.83793 0.3213,-9.35 0.798,-20.987 1.0594,-25.86001 l 0.4751,-8.86001 -6.2811,4.43347 c -3.4547,2.4384 -21.9187,15.35469 -41.0312,28.70286 l -34.75,24.2694 v 4.40714 c 0,2.42393 0.3013,4.40715 0.6697,4.40715 0.3683,0 14.8283,-6.975 32.1333,-15.5 17.305,-8.525 31.6761,-15.5 31.9358,-15.5 0.2596,0 0.1856,7.69538 -0.1646,17.10085 l -0.6366,17.10085 3.7812,-2.29179 c 2.0797,-1.26049 5.4392,-3.31788 7.4656,-4.57198 z"
      />
   </symbol>
   <symbol id="logoNotInverted">
    <path
       d="M 0,596 V 0 h 596 596 v 214.60024 214.60024 l -7.8075,9.14976 c -24.7662,29.02414 -40.8767,56.93294 -56.3689,97.64976 -3.2436,8.525 -11.1338,26.17652 -17.5337,39.22559 -10.2459,20.89086 -11.8844,23.67231 -13.7131,23.27963 -2.2047,-0.47342 -20.6075,-1.39589 -29.2133,-1.46435 -4.8781,-0.0388 -5.1577,-0.18512 -5.5573,-2.90818 -0.4857,-3.30889 1.0201,-8.83542 3.1938,-11.72237 2.1914,-2.91047 6.6234,-5.66224 14.1636,-8.79414 3.665,-1.52228 7.3458,-3.52161 8.1796,-4.44295 2.2371,-2.4719 3.5027,-15.58339 4.0865,-42.33472 0.6471,-29.65406 2.7461,-40.71484 10.5516,-55.60307 2.836,-5.40931 2.1678,-9.71279 -2.4468,-15.75822 -4.9734,-6.51551 -5.9106,-12.37304 -3.9513,-24.69681 0.8789,-5.52848 1.3817,-11.18386 1.1172,-12.5675 -0.3874,-2.02621 1.5408,-5.11556 9.9093,-15.87735 5.7147,-7.3489 10.3903,-13.78026 10.3903,-14.2919 0,-0.51164 -0.7895,-1.51827 -1.7544,-2.23696 -0.9649,-0.71868 -8.4877,-8.5067 -16.7173,-17.3067 -8.2297,-8.8 -17.9027,-19.06264 -21.4957,-22.80587 -3.5929,-3.74322 -6.6655,-7.39036 -6.828,-8.10475 -0.1624,-0.71439 7.7728,-7.32675 17.6339,-14.69414 l 17.9291,-13.39524 11.0656,-34 c 16.2743,-50.00438 15.3974,-46.72807 15.3894,-57.5 -0.01,-7.08713 -0.7683,-12.67483 -3.0041,-22 -4.4319,-18.48494 -5.5025,-25.70419 -5.0732,-34.20713 l 0.3864,-7.65085 -5.8272,-0.67632 c -3.205,-0.37197 -5.951,-0.51643 -6.1024,-0.32101 -0.1513,0.19542 -4.4553,8.42741 -9.5644,18.2933 -20.1503,38.91078 -31.6162,54.31631 -49.4719,66.4705 -13.5665,9.23461 -20.0145,12.19357 -26.8744,12.33257 -7.1695,0.14526 -15.0994,-3.50331 -14.3976,-6.62436 0.2618,-1.16419 2.1013,-7.92559 4.0879,-15.02534 1.9865,-7.09976 4.3219,-16.99976 5.1897,-22 4.5304,-26.1025 0.4788,-52.61624 -11.7613,-76.96702 -2.2505,-4.47709 -4.3337,-7.49779 -4.8276,-7 -0.4779,0.48161 -5.67734,11.22566 -11.55439,23.87566 -5.87706,12.65 -12.63103,25.75036 -15.00883,29.11192 -9.29689,13.14326 -25.0945,24.65379 -39.41928,28.72187 -14.68773,4.17115 -35.37634,5.04921 -62.34481,2.646 l -14.66649,-1.30695 -15.99474,10.91358 c -8.7971,6.00247 -20.76846,14.16543 -26.60301,18.13992 l -10.60828,7.22633 -12.64133,-0.54091 -12.64134,-0.54092 -7.79467,20.81458 -7.79467,20.81458 -9.81637,3.76241 c -26.03741,9.9796 -47.85366,28.51269 -65.79215,55.89096 -6.99016,10.66861 -6.5915,9.11312 -7.77768,30.34663 -1.06895,19.13492 3.42266,35.40417 12.68418,45.94385 l 3.46557,3.94386 12.66796,-9.44386 c 6.96738,-5.19412 13.67818,-10.04746 14.9129,-10.7852 2.04736,-1.22331 5.1491,-0.0957 35.24493,12.81268 18.15,7.78472 33.33093,14.47926 33.73539,14.87675 0.40447,0.39748 -3.2304,4.67012 -8.07747,9.49473 l -8.81287,8.77204 -12.17252,-5.00362 C 761.47764,440.35925 756,438.28349 756,438.49843 c 0,0.21494 4.06373,11.30227 9.03051,24.6385 l 9.03051,24.24769 -6.28051,6.39332 c -7.09949,7.227 -16.69656,14.45339 -22.30973,16.79871 -2.07775,0.86815 -7.19617,2.23079 -11.37426,3.0281 -9.51836,1.8164 -17.36028,5.48986 -27.59652,12.92728 -4.4,3.19695 -10.85025,7.82126 -14.33388,10.27625 l -6.33389,4.46363 0.64708,15.07845 c 0.8259,19.24526 1.3917,26.85399 2.04554,27.50782 0.28663,0.28664 1.2203,-0.47702 2.07482,-1.69702 1.32719,-1.89483 11.2096,-13.59611 24.40033,-28.89125 l 3.5,-4.05838 8.5,0.7948 c 4.675,0.43714 12.325,1.06682 17,1.39928 18.8905,1.34339 24.51398,1.81604 24.8026,2.08465 0.16644,0.15489 -7.25856,6.26639 -16.5,13.58111 -45.41049,35.94303 -49.39369,39.24887 -48.8858,40.57242 0.28739,0.74891 2.42661,3.8836 4.75383,6.96599 l 4.23132,5.60433 -2.83526,5.41527 c -4.83608,9.2368 -11.96972,13.38457 -22.96591,13.35324 L 680.5,638.96524 673.00884,627.37168 C 663.67588,612.9277 657.06177,606.6902 641.01588,597.20039 l -12.34259,-7.29961 -12.08665,-0.45081 C 609.93899,589.20203 602.25,588.72841 599.5,588.39748 c -5.48401,-0.65992 -3.67075,1.14246 -31.5,-31.31116 -4.125,-4.81045 -11.55,-13.38877 -16.5,-19.06292 -4.95,-5.67415 -10.8,-12.43468 -13,-15.0234 -2.2,-2.58872 -8.05,-9.33872 -13,-15 -4.95,-5.66128 -10.8,-12.41128 -13,-15 -2.2,-2.58872 -8.05,-9.34916 -13,-15.02321 -4.95,-5.67405 -11.62503,-13.40871 -14.8334,-17.18814 l -5.83339,-6.87169 1.16283,-7.20848 c 6.81031,-42.21774 17.26077,-68.83041 48.86349,-124.43356 l 10.9268,-19.22508 0.67437,-17.89543 0.67438,-17.89543 -2.64636,-0.50589 c -3.10448,-0.59346 -2.80405,-1.30219 -5.40342,12.74691 l -2.03522,11 -5.32377,5 c -2.92807,2.75 -8.28004,7.71247 -11.89327,11.02771 l -6.56949,6.02772 -2.72887,10.97228 c -6.65932,26.77595 -20.51479,54.59764 -35.8102,71.90666 l -4.36034,4.93438 0.76758,-7.94013 c 1.09225,-11.29858 5.78159,-24.63801 14.73958,-41.92862 8.91688,-17.21126 12.18444,-25.40815 15.0663,-37.79481 2.46189,-10.58158 3.99044,-30.40659 3.13464,-40.6556 -0.90468,-10.83433 0.11724,-12.3197 11.89353,-17.28725 l 9.46577,-3.99291 13.53423,5.49199 c 7.44383,3.0206 13.64876,5.39545 13.78874,5.27745 0.13998,-0.11801 -0.25434,-1.67424 -0.87627,-3.45831 -2.00187,-5.74255 -0.52232,-16.55298 3.70632,-27.08056 4.47849,-11.1496 5.24424,-20.93217 2.09646,-26.7827 C 549.76803,200.66178 548,200.74919 548,204.39929 c 0,3.55429 -5.7687,14.22677 -9.30803,17.22048 -5.01371,4.24081 -12.18109,7.00024 -25.69197,9.89138 -14.66048,3.13713 -19.82877,5.60218 -22.17177,10.57497 -2.32581,4.9363 -4.60456,17.07637 -4.77032,25.41388 -0.27437,13.8004 -1.60697,19.67389 -6.79926,29.96815 -1.95073,3.86752 -5.02159,12.71453 -6.82414,19.66003 -1.80255,6.94551 -4.40276,14.84906 -5.77825,17.56346 -2.67158,5.2721 -10.02144,12.67208 -11.97574,12.05741 -0.64929,-0.20422 -4.28379,-6.50311 -8.07669,-13.99753 -6.31553,-12.47895 -6.93712,-14.2645 -7.38266,-21.20697 -0.47969,-7.47445 -0.42076,-7.70728 4.20289,-16.60729 5.42827,-10.44881 7.16796,-18.04916 7.997,-34.93726 0.3105,-6.325 0.84146,-14.00395 1.1799,-17.06433 l 0.61536,-5.56433 -26.85816,-23.35017 c -14.77199,-12.8426 -28.2368,-24.63315 -29.92181,-26.20123 l -3.06366,-2.85105 -16.81141,8.09049 c -9.24627,4.44977 -16.41763,8.43256 -15.93634,8.85065 0.48128,0.41808 5.37506,1.75705 10.87506,2.97549 5.5,1.21843 11.65732,2.65186 13.68292,3.18539 l 3.68293,0.97005 -0.49954,12.22952 c -0.27474,6.72624 -0.0875,13.33559 0.41607,14.68746 0.88562,2.37743 1.07188,2.24643 5.6871,-4 2.62432,-3.55187 5.70694,-8.37044 6.85027,-10.70794 2.32162,-4.74648 2.98543,-5.07332 4.87355,-2.39962 0.71868,1.01772 6.3257,7.20522 12.46003,13.75 13.33801,14.23046 17.30936,18.69849 17.3307,19.49816 0.009,0.32919 -3.83801,1.61665 -8.54842,2.86101 -5.83769,1.54215 -8.41067,2.66307 -8.08155,3.52072 0.26556,0.69204 3.0129,11.0796 6.1052,23.08347 l 5.62236,21.82523 -3.8578,3.8578 -3.8578,3.85779 3.18783,11.19772 c 3.43628,12.07046 3.37129,12.44462 -2.19314,12.62743 -1.92844,0.0634 -3.17086,-3.00957 -12.60629,-31.17971 -18.96145,-56.61077 -22.1595,-65.0817 -25.12647,-66.55457 -2.16274,-1.07362 -3.11477,-1.07239 -5.37795,0.007 -5.72532,2.7305 -4.37488,10.05987 7.26224,39.4151 9.84519,24.835 12.32507,33.03171 13.1252,43.38251 0.57069,7.3827 -0.96728,22.72984 -2.42377,24.18633 -0.4098,0.4098 -2.76302,-1.7808 -5.22938,-4.86801 -15.25167,-19.0909 -16.97853,-22.26278 -18.996,-34.89161 -1.42,-8.88884 -5.02707,-15.63944 -15.99084,-29.92671 -5.06471,-6.6 -9.8269,-12.87455 -10.58265,-13.94344 -1.35639,-1.91842 -1.40331,-1.91691 -3.64444,0.11765 -1.2487,1.1336 -3.45852,2.81507 -4.91071,3.7366 -2.59755,1.64836 -2.74659,1.60124 -9.19598,-2.9072 -18.85553,-13.181 -38.44073,-17.81259 -56.16367,-13.28186 l -5,1.27821 -0.66772,6 c -0.45171,4.05895 -0.28996,6.38116 0.5,7.17821 0.64224,0.64801 6.56772,2.15011 13.16772,3.33801 6.6,1.18789 12.12577,2.28347 12.27949,2.43462 0.76301,0.75023 -0.53326,46.26626 -1.35709,47.65184 -0.52808,0.88818 1.20704,2.76771 10.0776,10.91638 4.4,4.04192 12.06837,11.20365 17.04082,15.91494 4.97245,4.7113 12.64243,11.941 17.04441,16.066 4.40198,4.125 14.84355,13.95822 23.20349,21.8516 8.35994,7.89338 16.33016,15.24067 17.7116,16.32731 2.51028,1.97459 2.51139,1.98314 1.96425,15.1484 -0.30109,7.24498 -0.70374,17.1404 -0.89476,21.98983 -0.36344,9.22599 -0.10353,8.60671 -6.56981,15.65355 -0.825,0.89907 -8.7,9.2017 -17.5,18.45028 -8.8,9.24858 -17.91309,18.94637 -20.25131,21.55064 l -4.25131,4.73503 -11.24869,0.68538 c -13.5642,0.82646 -14.49836,0.95765 -15.75308,2.21237 -0.95321,0.95321 -33.73208,59.62539 -34.72043,62.14747 -0.26982,0.68852 2.82038,-0.31193 6.86712,-2.22323 4.04673,-1.9113 10.2827,-4.21784 13.8577,-5.12565 12.69188,-3.22287 27.28819,0.11311 38.15594,8.72053 l 3.96159,3.13764 6.69124,-7.35803 C 342.48895,552.8562 353.6,540.74818 363.5,529.9964 c 9.9,-10.75178 22.5,-24.47917 28,-30.50533 5.5,-6.02615 10.45349,-11.45001 11.00775,-12.05303 0.71278,-0.77548 9.04587,3.81257 28.47028,15.67523 l 27.46253,16.77161 0.16533,5.37317 c 0.2161,7.02341 2.54315,11.39822 12.17026,22.87995 33.1368,39.52042 49.81625,63.14541 62.69812,88.80647 6.36952,12.68824 6.16335,15.588 -2.30094,32.36226 -7.19787,14.26451 -8.89214,20.34778 -7.30377,26.22417 0.59924,2.21699 1.73743,4.91695 2.52931,5.99991 1.42678,1.95123 1.524,1.94705 10.75891,-0.46233 11.41946,-2.97933 15.42811,-2.81111 22.90069,0.96103 4.77322,2.40952 29.36238,18.39573 32.24844,20.96576 0.4438,0.39521 -5.1812,4.4382 -12.5,8.98443 -7.3188,4.54623 -13.35929,8.32312 -13.4233,8.39309 -0.064,0.07 1.57249,8.66433 3.63668,19.09858 l 3.75306,18.97137 -11.763,15.02863 c -6.46965,8.26575 -14.76472,19.62195 -18.43348,25.23602 C 537.36317,828.2158 524,854.29854 524,856.91826 c 0,0.64028 7.5375,-4.53645 16.75,-11.50385 9.2125,-6.9674 17.23971,-12.85616 17.83825,-13.08613 0.59854,-0.22996 3.96624,3.94648 7.48379,9.28098 l 6.39555,9.6991 -2.98379,2.07422 c -7.90531,5.49548 -19.54124,18.83947 -30.19525,34.62767 -17.07395,25.30192 -25.36593,33.87377 -39.78855,41.13148 l -8,4.02575 -12,-0.70832 c -6.6,-0.38958 -13.8,-0.91006 -16,-1.15663 -2.2,-0.24657 -15.7,-0.42977 -30,-0.40712 -14.3,0.0227 -28.475,-0.4329 -31.5,-1.01234 -3.025,-0.57945 -12.25,-3.00531 -20.5,-5.3908 -17.30317,-5.00323 -22.24896,-6.03115 -36,-7.48214 -14.97772,-1.58043 -26.24193,-3.59921 -58.11708,-10.41582 -4.73568,-1.01275 -5.82655,-1.86751 -14.6357,-11.46804 l -9.51861,-10.37373 -4.62969,-19.12627 C 251.82603,837.64596 249.21174,824.55738 248.48693,815 c -0.35454,-4.675 -0.84556,-9.22793 -1.09115,-10.11763 -0.73213,-2.65227 2.41537,-33.53671 4.62501,-45.38237 1.12854,-6.05 3.35722,-17.75 4.95262,-26 l 2.90073,-15 -4.18707,-3.87983 C 253.38418,712.48627 246.1,707.11497 239.5,702.68397 224.26921,692.45855 217.99359,686.27153 215.15379,678.6815 213.96921,675.51541 213,672.08462 213,671.05753 c 0,-1.2793 -2.56061,-3.36863 -8.13022,-6.63388 -11.17717,-6.55272 -19.88049,-9.57579 -27.86978,-9.68047 -9.39203,-0.12307 -22.18648,4.0273 -16.75,5.4335 0.6875,0.17782 5.00588,2.3456 9.5964,4.81729 6.2898,3.38662 10.31085,6.54019 16.31885,12.79826 9.04597,9.42248 8.57807,6.63564 4.23224,25.20777 -1.35134,5.775 -3.39289,13.9875 -4.53678,18.25 L 183.7809,729 h -3.92257 c -7.34176,0 -13.84867,-4.23266 -17.58095,-11.43617 -0.8367,-1.61489 -2.56455,-6.83451 -3.83965,-11.59915 -1.2751,-4.76464 -3.8925,-12.44336 -5.81644,-17.06383 -3.86012,-9.27033 -2.82064,-8.68851 -13.62129,-7.62413 -7.31645,0.72102 -17.76871,-1.24375 -33.23475,-6.24731 C 89.917188,669.90226 78.892662,667.70497 73,668.49901 c -6.42056,0.86518 -14.055923,3.48315 -14.646388,5.02188 -0.277069,0.72202 0.251126,4.00317 1.173765,7.29143 C 61.393784,687.46415 62.323636,688 72,688 c 10.583884,0 10.273286,-0.28143 15.847669,14.35945 2.751729,7.2273 5.282364,13.85641 5.623634,14.73135 0.40657,1.04235 -0.989413,3.3814 -4.049132,6.78454 -5.402235,6.00859 -6.140936,4.03515 6.487757,17.33205 8.042062,8.46758 14.101192,12.10793 22.913902,13.76674 11.50319,2.16524 15.46188,6.16072 15.46188,15.60555 0,5.96068 -2.35644,21.42032 -3.265,21.42032 -0.34042,0 -8.69684,-4.49991 -18.56983,-9.99981 -9.87298,-5.49989 -18.307132,-9.99989 -18.742552,-10 -0.435419,-10e-5 -7.185419,5.44262 -15,12.09494 -7.81458,6.65232 -18.398415,15.65876 -23.519633,20.01432 l -9.311305,7.91919 6.311305,2.8251 c 3.471218,1.55381 6.857491,3.00987 7.525053,3.23568 0.775427,0.26231 -0.794341,3.66074 -4.346834,9.41058 -3.058319,4.95 -5.757899,9.32025 -5.999067,9.71166 C 48.063567,839.32848 69.679823,847.25029 102,856.5 c 26.02965,7.44942 41.41217,12.70274 50.5,17.24637 4.80912,2.40441 19.36943,11.74215 22.52608,14.44631 0.83934,0.71902 5.49637,9.98071 10.34894,20.58152 l 8.82287,19.2742 -0.10175,31.7258 c -0.056,17.44919 -0.29059,33.3008 -0.52139,35.2258 -1.28578,10.7241 -2.97233,19.8013 -6.02076,32.4044 -4.37899,18.104 -6.31459,28.4795 -7.07129,37.9044 -0.70604,8.7939 0.82737,24.4843 2.99256,30.6211 l 1.50341,4.2611 -11.54388,16.9045 c -6.34914,9.2975 -11.3134,16.9045 -11.03171,16.9045 1.02689,0 31.30564,-13.3421 38.65021,-17.0309 16.78066,-8.4281 33.01352,-21.2312 40.34786,-31.8231 l 2.90115,-4.1897 -2.65448,-14.7282 c -6.10384,-33.8666 -6.36952,-44.6752 -1.36349,-55.4697 1.79626,-3.8733 15.06829,-23.22112 20.33153,-29.6391 0.52583,-0.6412 48.12704,-0.43619 60.88414,0.26221 30.70287,1.68088 94.61908,8.43779 123.36965,13.04204 4.74669,0.76016 17.80084,2.65693 29.00921,4.21504 19.68005,2.73581 20.41269,2.91911 21.36556,5.34721 0.54268,1.3828 2.94118,6.6 5.33,11.5937 9.374,19.5959 27.63478,31.7048 61.07988,40.5029 l 12.15431,3.1973 6.96357,10.6102 c 3.82996,5.8355 10.45877,16.6851 14.73069,24.1101 14.40677,25.0403 24.22687,37.1524 36.99598,45.6306 6.7411,4.4758 4.93678,5.7458 15.67903,-11.0352 l 6.98052,-10.9045 2.60797,4.3734 c 1.43439,2.4053 5.66293,11.2856 9.39676,19.7339 9.9329,22.4745 16.20574,31.1781 26.60085,36.9089 l 3.73602,2.0597 11.75487,-5.3065 11.75487,-5.3065 3.07825,4.4741 C 727.12508,1179.0421 734,1190.8112 734,1191.5961 734,1191.8182 568.85,1192 367,1192 H 0 Z m 754.90288,590.25 c -10.0452,-17.8057 -25.69862,-37.1948 -39.05985,-48.3814 l -4.9106,-4.1114 -5.80575,2.6055 c -3.19316,1.433 -8.33527,3.7241 -11.42691,5.0914 l -5.62117,2.4859 -16.63764,-27.72 c -9.1507,-15.246 -16.76928,-27.8584 -16.93018,-28.0275 -0.1609,-0.1692 -4.67445,-0.9659 -10.03011,-1.7704 -5.35567,-0.8046 -10.04529,-1.653 -10.42137,-1.8855 -0.37609,-0.2324 -4.64579,-6.7482 -9.48823,-14.4796 -4.84244,-7.7313 -9.19377,-14.057 -9.66962,-14.057 -0.47585,0 -4.74985,1.7947 -9.49778,3.9883 -4.74793,2.1935 -8.99647,3.7634 -9.4412,3.4885 -0.44473,-0.2749 -1.10181,-1.9571 -1.46019,-3.7383 -0.35838,-1.7812 -0.87819,-4.0413 -1.15514,-5.0226 -0.41043,-1.4541 1.95812,-2.9598 12.80933,-8.1429 l 13.31287,-6.3588 4.51533,1.7368 c 21.0226,8.0864 32.01533,12.5552 32.01533,13.0149 0,0.2995 -4.04317,2.1173 -8.98482,4.0394 -4.94165,1.9221 -8.97871,3.7197 -8.97124,3.9947 0.007,0.275 10.01314,6.0488 22.23482,12.8306 l 22.22124,12.3306 11,-3.0375 c 6.05,-1.6706 13.925,-3.7611 17.5,-4.6456 17.96406,-4.4441 28.39919,-8.8316 37.62334,-15.8188 3.36784,-2.5511 7.27522,-6.1486 8.68306,-7.9944 l 2.55971,-3.3559 -1.92621,-3.1674 c -1.05942,-1.7421 -3.50429,-3.92 -5.43306,-4.8397 -3.24014,-1.5451 -3.76416,-1.5496 -6.89035,-0.059 -1.86093,0.8874 -4.93603,2.9766 -6.83355,4.6426 l -3.45004,3.0292 -4.37466,-4.4575 c -2.40606,-2.4515 -4.63839,-4.4574 -4.96074,-4.4574 -0.32234,0 -2.57162,4.0508 -4.99839,9.0018 -3.19078,6.5097 -4.83959,8.8787 -5.95571,8.557 -0.84887,-0.2447 -3.3434,-0.5666 -5.5434,-0.7154 -2.2,-0.1488 -4.33061,-0.737 -4.73469,-1.307 -0.40408,-0.57 -0.74158,-5.6285 -0.75,-11.2411 L 704,1038.0906 714.07153,1030.9 c 19.87604,-14.1907 30.93608,-26.5816 35.52327,-39.79796 2.87637,-8.2872 4.12608,-24.23831 2.06079,-26.30359 -0.97097,-0.97097 -4.67335,-1.42439 -12.76169,-1.5629 l -11.3939,-0.19511 -8.06338,7.72978 C 715.00177,975.0216 704.96966,984.35 697.14304,991.5 l -14.2302,13 -14.20642,-0.4454 c -7.81353,-0.245 -16.44564,-0.455 -19.18247,-0.4668 l -4.97606,-0.021 -2.85497,7.5858 -2.85496,7.5858 -9.16898,1.1901 c -9.02267,1.1711 -27.51025,3.8631 -45.14501,6.5735 -4.93682,0.7588 -9.11758,1.238 -9.29057,1.065 -0.17299,-0.173 3.11673,-3.962 7.3105,-8.42 8.17433,-8.6893 17.34106,-15.3622 26.90626,-19.58611 3.27258,-1.44516 6.09957,-2.77699 6.28219,-2.95961 0.18262,-0.18262 -1.72105,-4.55033 -4.23038,-9.70603 l -4.56243,-9.374 13.46059,-4.51048 c 7.40333,-2.48076 13.68641,-4.74244 13.9624,-5.02597 0.27599,-0.28352 -3.18017,-3.07962 -7.68036,-6.21354 -4.5002,-3.13392 -13.26741,-9.26693 -19.48269,-13.62892 l -11.30053,-7.93089 10.14227,-12.71383 c 5.57825,-6.99261 9.76348,-13.04293 9.30052,-13.44517 -0.46296,-0.40223 -9.61674,-4.48306 -20.34174,-9.06851 -10.725,-4.58545 -19.86314,-8.64327 -20.30698,-9.01739 -0.44384,-0.37411 5.29299,-3.43176 12.74851,-6.79477 l 13.55548,-6.11456 15.7515,4.51827 c 8.66332,2.48504 18.45149,5.36416 21.75149,6.39804 3.3,1.03387 8.55248,2.59024 11.67217,3.45858 5.63686,1.56898 5.73178,1.65964 15.24878,14.56344 l 9.57661,12.98462 8.25122,-3.08567 c 26.01983,-9.73053 34.01166,-9.62537 45.16901,0.59436 2.10848,1.93129 3.93185,3.51144 4.05194,3.51144 0.1201,0 3.27415,-4.31081 7.00901,-9.57959 5.50185,-7.76146 7.02235,-9.32724 8.01145,-8.25 0.90197,0.98234 26.40935,35.54512 26.92509,36.48378 0.0466,0.0848 5.37222,0.41005 11.83472,0.72278 l 11.75,0.56859 0.036,-2.72278 c 0.0198,-1.49753 0.29213,-8.10466 0.60518,-14.68251 0.47467,-9.97402 0.34416,-11.78449 -0.78601,-10.90426 -0.74534,0.5805 -3.82237,2.9757 -6.83783,5.32265 l -5.48266,4.26719 -1.36715,-3.35049 c -1.93146,-4.7335 -0.91351,-10.47479 2.50228,-14.11298 3.76882,-4.0142 16.40255,-12.12765 17.26318,-11.08651 0.37468,0.45327 3.99923,7.92903 8.05455,16.6128 l 7.37331,15.78868 -5.90068,5.9629 c -5.65028,5.70986 -5.81707,6.02258 -3.93043,7.36934 1.08364,0.77353 7.13026,5.47532 13.43693,10.44842 6.30667,4.97309 11.64515,8.8635 11.86329,8.64536 0.21814,-0.21814 -0.30788,-5.70814 -1.16894,-12.2 -0.86107,-6.49185 -1.77202,-13.73665 -2.02434,-16.09955 l -0.45876,-4.29619 9.62926,0.41858 c 6.84413,0.29752 9.82939,0.81704 10.3212,1.79619 0.38056,0.75768 4.0871,8.38385 8.23675,16.94705 10.75064,22.18494 31.32326,52.34745 49.63487,72.77195 l 5.5,6.1347 10.5,-13.4509 c 5.775,-7.398 10.8026,-13.4677 11.17245,-13.4881 0.36984,-0.02 1.21837,1.6504 1.88561,3.7129 1.71286,5.2946 9.13923,20.091 13.52865,26.9546 4.45759,6.9702 12.75716,17.9539 24.76807,32.7782 10.82837,13.3648 16.97069,22.4049 22.57112,33.2198 5.3384,10.309 9.2454,13.9087 25.7298,23.7066 17.0299,10.1222 27.6512,18.1632 39.6121,29.9888 10.3883,10.2707 18.928,20.5367 26.8537,32.2821 l 4.9394,7.3199 H 927.10386 758.14678 Z m 362.34572,-4.5 c -5.5329,-5.6375 -15.8053,-17 -22.8276,-25.25 -31.5586,-37.076 -49.1447,-54.7311 -67.1913,-67.4548 -8.3557,-5.8912 -9.2338,-6.8237 -10.0562,-10.6797 -1.6111,-7.5542 -5.7091,-12.9006 -17.46359,-22.7838 -6.16545,-5.1839 -11.76984,-10.3503 -12.45419,-11.4808 -1.10329,-1.8225 -0.92849,-2.2188 1.54247,-3.4965 4.06757,-2.1035 14.85991,-3.838 19.25741,-3.095 6.5755,1.1109 24.5492,0.7752 28.5832,-0.5339 4.7866,-1.5534 9.0679,-4.426 12.4582,-8.3589 l 2.597,-3.0126 -14.847,-25.77072 C 1028.6811,985.65938 1022,973.8727 1022,973.64066 c 0,-0.45264 16.0136,5.33647 22.3059,8.06386 2.1116,0.91526 5.5412,3.82907 7.7037,6.54507 7.8297,9.83364 12.5677,12.59841 32.9904,19.25111 7.975,2.5979 16.075,5.3226 18,6.0549 9.0068,3.4265 19.3253,0.8295 37,-9.3123 7.4774,-4.2905 13.2057,-6.87224 16.3764,-7.38072 2.682,-0.43011 5.1095,-1.01511 5.3944,-1.3 0.2848,-0.2849 -0.2544,-2.54048 -1.1985,-5.0124 -2.1122,-5.53079 -8.82,-11.75408 -19.3525,-17.95472 -4.2459,-2.49964 -8.5523,-5.20118 -9.5697,-6.00342 -2.3168,-1.8268 -6.6501,-13.56557 -6.6501,-18.01508 0,-6.87713 4.3363,-6.80458 17,0.28441 l 6.5,3.63863 20.5,0.51035 c 11.275,0.28069 21.0625,0.86975 21.75,1.30902 0.9885,0.63156 1.25,25.57948 1.25,119.23963 V 1192 h -32.3458 -32.3458 z M 1006.4985,1016.1682 C 979.54897,1002.4766 973.96388,998.56758 966.61435,988.25314 963.16946,983.41853 955,967.82882 955,966.08959 c 0,-1.32034 3.61643,-2.34611 5.81321,-1.64887 0.99727,0.31652 3.25948,2.62733 5.02715,5.13514 2.3142,3.28317 4.78731,5.27996 8.83414,7.13266 5.42584,2.48403 12.92788,3.74386 13.80856,2.3189 0.23522,-0.3806 -3.65013,-6.64458 -8.63411,-13.91996 -4.98399,-7.27537 -8.85627,-13.43347 -8.60507,-13.68467 1.25504,-1.25505 17.49049,8.33263 23.27807,13.74662 8.61445,8.05836 13.40395,16.00268 22.18235,36.79319 4.0727,9.6456 8.2986,19.0566 9.3909,20.9134 1.0923,1.8568 1.8546,3.5075 1.6939,3.6682 -0.1606,0.1607 -9.7414,-4.5086 -21.2906,-10.376 z M 905.70625,989.25 c -11.20237,-14.05513 -16.60257,-25.39001 -28.10891,-58.99987 -10.14798,-29.64208 -12.73154,-35.50841 -16.02618,-36.38953 -1.43568,-0.38396 -7.88902,-0.80611 -14.34075,-0.93811 -6.45172,-0.13201 -13.30541,-0.34348 -15.23041,-0.46995 -1.925,-0.12646 -5.3,-0.28004 -7.5,-0.34129 l -4,-0.11136 0.0891,-13.74994 c 0.0978,-15.08863 0.86015,-17.82519 6.67314,-23.95259 l 3.03831,-3.20263 -3.52367,-9.29737 C 822.30607,830.00099 821.65656,826.2944 823.25252,821.68459 824.61555,817.74757 835.55175,802 836.92286,802 c 0.45184,0 1.11791,1.9125 1.48015,4.25 1.58879,10.25215 8.00424,38.35743 9.00076,39.4312 0.71592,0.77141 7.34096,1.41337 19.09623,1.85042 9.9,0.36806 21.15,0.79863 25,0.95681 l 7,0.28759 7.5,-6.06869 c 4.125,-3.33777 8.0414,-6.47497 8.70311,-6.97154 0.66172,-0.49657 4.58171,-2.16327 8.7111,-3.70379 9.87038,-3.68224 19.26214,-10.50666 25.1301,-18.26051 6.03692,-7.97712 8.72938,-13.86762 11.85036,-25.92599 7.02134,-27.12788 16.57564,-38.61102 66.43373,-79.8455 17.872,-14.78075 15.7135,-13.77554 34.1716,-15.91393 5.225,-0.60532 12.875,-1.5381 17,-2.07284 13.5486,-1.75637 37.9525,-4.60827 52,-6.07685 l 9.5,-0.99317 21.1295,-21.22161 c 14.6832,-14.74724 22.6917,-23.62514 26.25,-29.09991 l 5.1205,-7.8783 v 61.4982 61.4982 l -6.1502,1.20997 c -13.8847,2.73166 -30.243,0.80485 -44.5373,-5.24597 l -8.1875,-3.46579 -1.9455,2.131 c -2.6659,2.91999 -4.8863,7.52107 -5.6295,11.66556 -0.6491,3.61907 1.0154,10.38445 5.823,23.66748 2.8555,7.88976 3.7638,15.95471 2.3795,21.12888 l -0.8912,3.33091 -16.6806,-0.63089 c -9.1744,-0.347 -20.9557,-0.82157 -26.1807,-1.05461 -5.225,-0.23304 -15.8,-0.65977 -23.5,-0.94828 -7.7,-0.28852 -19.6954,-0.78748 -26.6564,-1.10882 -14.8,-0.68319 -13.5858,-1.79036 -13.7959,12.58077 -0.076,5.225 -0.3067,12.2 -0.5117,15.5 l -0.3729,6 9.4673,11.87167 c 8.637,10.83057 9.3095,11.97829 7.6684,13.0875 -0.9893,0.66871 -6.9812,3.96312 -13.3153,7.3209 l -11.5164,6.10507 -6.9801,-5.28949 -6.98,-5.2895 -6.40262,4.84693 c -3.52146,2.6658 -6.70709,4.84692 -7.0792,4.84692 -0.3721,0 -1.76749,-1.16879 -3.10087,-2.59732 -5.31461,-5.69387 -9.26654,-6.83942 -22.85689,-6.62554 -7.54855,0.1188 -12.69257,0.61634 -13.09441,1.26653 -0.364,0.58897 -1.69063,6.67986 -2.94805,13.53531 -1.25742,6.85545 -2.57752,12.64449 -2.93355,12.86452 -0.35603,0.22004 -4.00974,-0.19336 -8.11937,-0.91868 -4.10962,-0.72531 -12.64704,-2.06059 -18.97204,-2.96728 -6.325,-0.90669 -14.338,-2.09566 -17.80668,-2.64217 -6.20484,-0.97761 -6.37035,-0.94322 -10.25,2.12952 -5.16278,4.089 -5.21127,7.01233 -0.19332,11.65469 8.15326,7.54301 19.35449,15.15602 26.8608,18.25618 13.19481,5.44955 18.97228,10.84005 25.86264,24.1304 2.44831,4.72239 4.89632,9.75617 5.44001,11.18619 l 0.98852,2.60002 -6.20098,-2.81476 c -3.41055,-1.54812 -9.63257,-4.39332 -13.82672,-6.32266 l -7.62572,-3.5079 -1.07508,3.63648 c -0.59129,2.00006 -1.82706,7.49517 -2.74614,12.21136 -1.53835,7.89392 -1.54447,9.01032 -0.0771,14.05801 0.87669,3.01571 2.93987,7.48202 4.58484,9.92511 l 2.99086,4.44199 -6.18409,6.25 c -3.40125,3.4375 -6.5152,6.25 -6.91988,6.25 -0.40468,0 -3.15677,-3.0375 -6.11574,-6.75 z m -687.44579,1.25 c 0.2982,-0.55 2.60259,-9.69191 5.12086,-20.31536 l 4.57867,-19.31535 -16.1302,-30.50666 -16.13021,-30.50666 2.11055,-2.11055 2.11055,-2.11055 5.28966,4.98979 c 12.35737,11.65683 15.31685,14.34006 15.78966,14.3158 0.275,-0.0141 4.06854,-5.41865 8.43008,-12.01007 4.36155,-6.59143 8.45759,-12.4222 9.10231,-12.95727 1.97657,-1.64041 7.78332,3.06518 9.33338,7.56344 1.83044,5.31191 0.2182,18.97662 -3.25289,27.57017 -1.39875,3.46296 -2.44637,6.35153 -2.32803,6.41903 0.11833,0.0675 4.94015,3.51172 10.71515,7.65382 24.49838,17.5714 33.24334,19.43174 50.5275,10.74882 9.84652,-4.94652 13.71486,-5.2255 21.11784,-1.52302 7.77236,3.88722 15.81789,5.47039 33.79387,6.64983 13.52643,0.8875 18.24291,1.60239 23.95193,3.63046 23.13031,8.21681 28.1466,9.07748 60.29991,10.3459 13.85508,0.54657 26.68008,1.21283 28.5,1.48057 1.81992,0.26775 10.95895,0.73578 20.30895,1.04007 23.77263,0.77367 21.66472,-0.26251 21.30241,10.4716 -0.17341,5.13767 -0.73179,8.96297 -1.30901,8.96779 -0.55363,0.005 -2.57863,-0.46061 -4.5,-1.03384 -1.92137,-0.57323 -14.7434,-1.19403 -28.4934,-1.37954 -13.75,-0.18552 -27.47305,-0.85083 -30.49567,-1.47847 -5.56538,-1.15564 -17.21005,-6.12178 -19.98875,-8.52467 -0.83357,-0.72083 -4.66558,-1.59986 -8.51558,-1.95339 -3.85,-0.35354 -10.6,-1.07515 -15,-1.60359 -7.89015,-0.94761 -17.59674,-2.09327 -33.75,-3.9835 -4.5375,-0.53098 -14.1,-1.67403 -21.25,-2.54013 -21.94468,-2.6582 -54.44102,-5.49454 -62.9353,-5.4931 -14.10079,0.002 -34.16595,4.6148 -42.53541,9.77769 -2.77651,1.71275 -8.10848,7.21596 -13.77814,14.22061 -8.56625,10.58328 -13.29698,15.90961 -11.99069,13.50033 z M 1072.5,972.91512 c -6.5027,-0.90855 -11.7802,-3.26869 -29.1737,-13.04672 -13.5678,-7.62734 -14.3326,-8.22095 -14.4448,-11.21109 -0.1829,-4.87452 0.1311,-5.98416 2.3795,-8.40731 2.4481,-2.63846 7.4177,-2.98462 11.6237,-0.80963 1.5319,0.7922 6.9871,5.99761 12.1226,11.56758 5.1355,5.56996 11.0583,11.0052 13.1618,12.07832 4.565,2.32889 11.4869,3.40029 14.5094,2.24582 2.3554,-0.89971 5.3789,2.58934 -46.773,-53.97587 l -15.8062,-17.14379 4.3932,-1.10621 c 8.3794,-2.10996 8.4135,-2.0912 21.1686,11.6208 15.2533,16.39753 35.9567,37.30344 39.9835,40.37465 l 3.1447,2.39833 -1.4344,8.87652 c -2.4443,15.12632 -4.9552,17.92179 -14.8549,16.5386 z m 110.3783,-77.78396 c -7.6849,-5.07119 -14.7024,-11.64035 -13.606,-12.73675 1.2262,-1.22628 12.2807,-3.36333 17.4777,-3.37879 L 1192,879 v 10.5 c 0,5.775 -0.3923,10.5 -0.8717,10.5 -0.4794,0 -4.1919,-2.19098 -8.25,-4.86884 z M 1182,855.94626 c -16.2912,-3.49759 -35,-8.31292 -35,-9.0084 0,-1.51364 9.9562,-3.15681 18.5,-3.05325 6.6452,0.0806 11.2894,0.80525 17.75,2.76986 l 8.75,2.66078 v 4.34237 c 0,2.38831 -0.3375,4.29089 -0.75,4.22795 -0.4125,-0.0629 -4.575,-0.93563 -9.25,-1.93931 z M 217.68235,797.71168 C 213.02029,793.3729 212,791.83911 212,789.16952 c 0,-5.33665 -2.97615,-18.14935 -6.10019,-26.26204 -3.02331,-7.85113 -12.47382,-23.00531 -17.83768,-28.60325 C 186.37796,732.54656 185,730.90351 185,730.65301 c 0,-0.2505 1.4625,-1.31836 3.25,-2.37301 1.7875,-1.05466 6.90883,-4.87149 11.38073,-8.48186 9.27679,-7.48958 13.52795,-9.27885 19.64,-8.26628 7.37726,1.22216 8.53223,2.37782 13.78622,13.79443 l 4.92472,10.70112 -6.3669,9.2363 c -7.66496,11.11935 -9.94806,15.55725 -11.58801,22.52488 -2.06704,8.78221 0.91552,17.23174 9.88851,28.01387 l 4.94711,5.94456 -4.57076,0.62649 C 227.7777,802.71808 225.19072,803 224.54278,803 c -0.64795,0 -3.73514,-2.37975 -6.86043,-5.28832 z M 1078.6043,663.55964 c -0.3533,-1.4078 -0.4209,-3.57214 -0.1503,-4.80964 0.2707,-1.2375 0.7168,-8.27502 0.9913,-15.63893 0.2746,-7.36391 0.6242,-13.47605 0.777,-13.58253 0.1527,-0.10648 3.0323,-1.20216 6.399,-2.43485 19.04,-6.97137 36.5643,-26.02652 52.0468,-56.59369 6.6586,-13.14628 7.1276,-14.84599 7.8962,-28.61665 0.7237,-12.9686 2.5428,-18.59776 8.593,-26.59123 2.8142,-3.71799 8.7233,-12.16722 13.1314,-18.77606 8.3437,-12.50925 19.3039,-27.10316 22.0939,-29.41859 1.4845,-1.23204 1.6174,1.44765 1.6174,32.60743 v 33.94978 l -10.5,4.29834 c -5.775,2.36409 -10.4923,4.35428 -10.4828,4.42266 0.01,0.0684 2.8809,9.26494 6.3811,20.43681 l 6.364,20.3125 -4.1312,2.62602 c -7.176,4.56157 -14.9144,8.05141 -21.6311,9.75518 -3.575,0.90684 -6.871,2.00737 -7.3243,2.44564 -0.4534,0.43827 1.0556,4.53591 3.3533,9.10587 3.9936,7.94283 4.1241,8.48824 2.9617,12.37566 -5.4928,18.36998 -17.7693,27.89518 -46.4907,36.07164 -10.9427,3.11519 -22.492,6.99068 -29.6266,9.94153 -1.1882,0.49143 -1.7998,-0.0171 -2.2691,-1.88689 z M 551.99353,623.11395 c -8.37423,-2.70867 -11.71551,-6.09647 -18.64548,-18.90508 -13.69902,-25.31981 -30.75036,-45.48653 -62.61523,-74.05541 L 459.96565,520.5 l 0.15583,-6.01806 c 0.21635,-8.35561 -2.23236,-12.61035 -12.84069,-22.31121 -11.40963,-10.43361 -11.74711,-10.68698 -28.34776,-21.28319 -13.92617,-8.88909 -14.16842,-8.99648 -15.61978,-6.92438 -4.78641,6.83356 -20.88406,25.66619 -27.57853,32.26411 -8.84545,8.71787 -20.34695,16.68357 -28.84935,19.98044 l -5.72698,2.22069 -2.75074,14.2858 C 336.89474,540.57139 335.22992,547 334.70805,547 333.89789,547 322.45191,536.69827 305,520.26185 l -4.5,-4.23816 6.12178,-0.0118 c 3.36697,-0.007 10.37339,-1.09036 15.56982,-2.40855 23.38464,-5.93199 38.83906,-18.41111 63.27503,-51.09323 10.82797,-14.48197 11.97331,-16.41527 12.14485,-20.5 0.10417,-2.48054 0.48275,-12.01374 0.8413,-21.18489 l 0.65191,-16.67483 -3.18012,-6.32517 c -4.38854,-8.72872 -11.12258,-19.04931 -17.70466,-27.13417 -5.85758,-7.19497 -19.06481,-18.46155 -25.63831,-21.87109 -5.93549,-3.07861 -12.53897,-10.594 -17.96815,-20.44947 -2.6876,-4.87875 -6.60357,-11.93033 -8.70217,-15.67019 -2.49587,-4.44784 -3.39982,-6.92969 -2.61345,-7.17547 0.66119,-0.20665 5.64229,-0.57431 11.06911,-0.81703 l 9.86693,-0.4413 12.6756,17.11677 c 6.97158,9.41422 24.29464,32.97927 38.49568,52.36677 14.20105,19.3875 26.12974,35.25 26.50821,35.25 0.37846,0 1.7143,-2.1375 2.96854,-4.75 1.25423,-2.6125 3.35739,-6.6105 4.67369,-8.88444 l 2.39327,-4.13444 15.18368,4.87589 c 8.35103,2.68173 15.40156,5.09376 15.66786,5.36006 0.26629,0.26629 0.50567,1.73264 0.53195,3.25855 0.0953,5.5341 -1.53876,40.78467 -1.90842,41.16886 -0.20876,0.21697 -5.67705,-2.77916 -12.15175,-6.65807 -6.4747,-3.87891 -11.87885,-6.94976 -12.00922,-6.82411 -0.13038,0.12565 1.229,7.62178 3.02084,16.65808 L 443.54169,465.5 501.4624,540 c 31.85638,40.975 59.25968,76.18733 60.8962,78.24961 1.63653,2.06229 2.77967,3.94545 2.54032,4.1848 -0.93933,0.93934 -10.5394,1.44483 -12.90539,0.67954 z M 898,549.12857 c 0,-0.46542 4.05561,-8.31028 9.01246,-17.43301 l 9.01247,-16.5868 -2.96935,-4.68217 c -1.63314,-2.57519 -3.47993,-6.98717 -4.10398,-9.80438 -1.50213,-6.7812 0.45348,-15.24185 6.52735,-28.23958 C 917.96553,467.0615 920,462.20305 920,461.58606 c 0,-1.30766 -20.72677,-22.20375 -21.36102,-21.53552 -0.23462,0.24721 -2.44069,7.29164 -4.90238,15.65429 -3.94874,13.41436 -4.86807,15.53399 -7.80702,18 C 884.0974,475.24218 875.579,482.575 866.99979,490 c -8.57921,7.425 -16.38228,14.1329 -17.34015,14.90645 -1.54464,1.2474 -2.10987,1.0495 -4.99822,-1.75 C 842.87027,501.4204 841.1276,500 840.78883,500 c -0.33878,0 -3.90361,5.37625 -7.92184,11.94722 -4.01823,6.57097 -7.43057,11.82253 -7.58297,11.67013 -1.14869,-1.14869 -24.11055,-52.12406 -23.67524,-52.55906 1.82728,-1.82595 9.66314,10e-4 18.65675,4.35017 5.37105,2.59728 11.2373,4.96116 13.03613,5.25307 5.75229,0.93346 11.31185,-1.4349 21.65106,-9.22332 12.03114,-9.06293 18.02381,-15.67649 22.59694,-24.93821 l 3.45638,-7 -12.89272,-28.8397 c -7.091,-15.86184 -13.27986,-29.20827 -13.75302,-29.65873 -0.47317,-0.45047 -9.1853,-1.1216 -19.3603,-1.49141 -21.71622,-0.78928 -20.9716,-0.53271 -38.01226,-13.09779 -14.45193,-10.65626 -25.55408,-16.25819 -33.40378,-16.85492 -6.97038,-0.52987 -16.03344,2.03966 -22.5505,6.39345 l -4.46654,2.98392 -3.98667,-9.46741 c -2.19267,-5.20708 -4.23273,-9.44834 -4.53346,-9.42502 -0.30073,0.0233 -6.35597,12.06081 -13.45609,26.75 -7.10011,14.68918 -13.27642,27.12392 -13.72514,27.63275 -0.45635,0.5175 -1.97953,-1.61668 -3.45678,-4.84343 -3.63076,-7.93062 -3.08329,-13.28115 2.61754,-25.58171 3.48117,-7.51125 4.41029,-10.65138 4.43828,-15 l 0.0354,-5.5 18.80986,-15.09335 18.80987,-15.09335 11.69013,-3.27767 c 14.86971,-4.16915 25.79564,-4.99169 33.28088,-2.50549 6.84719,2.27427 14.25893,9.65995 18.34313,18.27865 l 2.93387,6.19121 6.81613,0.1875 c 3.74887,0.10312 8.05363,0.21562 9.56613,0.25 2.24397,0.051 3.35902,1.08194 6.05971,5.6026 4.22765,7.07664 11.45841,14.78552 22.19029,23.65762 10.57757,8.74452 18.17803,16.75501 20.75592,21.87565 1.08723,2.15965 3.44761,7.97663 5.24529,12.92663 1.79768,4.95 4.34859,11.15366 5.66869,13.7859 4.62178,9.21573 12.7794,16.18154 21.7858,18.60296 5.14115,1.38223 5.59393,0.59554 5.11593,-8.88886 -0.63583,-12.61595 -5.86025,-25.09804 -16.3985,-39.17895 -2.74921,-3.67343 -9.52618,-13.39541 -15.05992,-21.60441 -11.9476,-17.72361 -20.68705,-26.61623 -29.68002,-30.20021 -9.97145,-3.97394 -13.88377,-7.46123 -21.93635,-19.55325 -7.4327,-11.16118 -12.10782,-15.63088 -17.80548,-17.02313 l -2.80865,-0.6863 2.30865,-2.47726 c 1.26975,-1.3625 4.36302,-4.2044 6.87393,-6.31534 l 4.56529,-3.83809 12.62858,9.41077 c 14.14256,10.53898 21.70649,17.80094 25.4835,24.46617 12.71446,22.43698 19.92506,28.89327 37.31278,33.40942 10.10464,2.62451 12.38172,4.30073 22.19803,16.34058 2.80266,3.4375 5.41457,6.25 5.80424,6.25 0.68116,0 19.1513,-31.36749 19.72005,-33.49018 0.15277,-0.57017 -3.5139,-3.22774 -8.14815,-5.9057 l -8.42592,-4.86904 -5.85184,-13.06588 C 919.13333,304.48297 916.5,298.15875 916.5,297.61539 c 0,-0.54336 4.275,-2.85132 9.5,-5.12879 l 9.5,-4.14086 -0.0221,-5.60737 c -0.0303,-7.68281 -3.30167,-11.58747 -14.93335,-17.82422 -4.88108,-2.61716 -10.25131,-5.96645 -11.93385,-7.44285 -2.59953,-2.28105 -4.1148,-2.72691 -10.08493,-2.96742 C 861.8279,253.02545 853,252.86654 853,253.68434 c 0,0.85952 5.95968,18.80706 7.45648,22.45514 0.55475,1.35207 -0.34666,1.81662 -5.1419,2.6499 -3.19802,0.55572 -5.90894,0.92359 -6.02428,0.81748 -0.11533,-0.10611 -3.3914,-7.34392 -7.28014,-16.08403 -5.65177,-12.70257 -6.81359,-16.12291 -5.7903,-17.04637 0.70407,-0.63539 8.1907,-5.33425 16.63694,-10.4419 l 15.35679,-9.28665 20.64321,0.60057 c 26.82461,0.78039 38.82217,1.9116 54.4744,5.1362 21.02803,4.33209 56.6778,17.7791 56.66125,21.37252 -0.0248,5.39391 -2.49364,15.19269 -5.15736,20.46948 -1.698,3.36373 -6.23207,10.80311 -10.0757,16.53195 -9.39151,13.99781 -13.94678,23.74638 -14.12206,30.2221 l -0.13733,5.07381 16.49729,6.35393 c 14.76751,5.68769 16.66971,6.19786 18.14191,4.86555 1.9283,-1.74511 2.6323,-6.92318 3.4495,-25.37402 0.5159,-11.64782 0.9201,-17.82976 1.3121,-20.06586 0.055,-0.31122 1.8402,-1.54437 3.9681,-2.74032 l 3.869,-2.17446 -0.4259,13.41125 -0.4259,13.41125 5.3069,0.48152 c 2.9189,0.26483 6.5737,0.47963 8.1219,0.47732 1.5482,-0.002 3.0369,0.2178 3.3083,0.48912 0.2713,0.27132 -4.4486,7.17648 -10.4886,15.3448 -6.04,8.16831 -10.806,15.02732 -10.5911,15.24223 0.2149,0.21491 6.0624,1.84113 12.9944,3.61381 l 12.6036,3.22306 1.3344,-2.10686 c 0.7339,-1.15877 3.5871,-6.60686 6.3405,-12.10686 3.0334,-6.0593 5.2174,-9.40889 5.5422,-8.5 1.3412,3.75315 19.8796,61.60259 20.0028,62.41916 0.076,0.50555 -4.2209,2.30555 -9.5492,4 -5.3283,1.69446 -9.9913,3.3938 -10.3621,3.77631 -0.3709,0.3825 -1.1981,4.64721 -1.8381,9.47713 l -1.1638,8.78168 -5.5596,4.52286 c -3.0577,2.48757 -9.0002,7.33218 -13.2055,10.76579 l -7.6459,6.24293 -8.7686,-0.44342 c -4.8227,-0.24388 -10.4038,-0.4657 -12.4025,-0.49293 -3.4806,-0.0474 -3.72961,-0.29194 -5.90588,-5.79951 -1.24964,-3.1625 -2.59689,-6.12249 -2.99389,-6.57775 -0.397,-0.45526 -12.87664,8.22996 -27.73254,19.30049 l -27.01071,20.12824 -4.61844,9.55291 c -5.83915,12.07786 -6.19355,13.50318 -3.87846,15.5983 1.74353,1.57788 2.48964,1.13895 14.30664,-8.4166 16.04229,-12.97224 23.21841,-17.78309 40.9385,-27.44504 7.95923,-4.3398 14.78653,-8.02882 15.17179,-8.19781 0.38525,-0.169 0.5326,0.956 0.32744,2.5 -0.52412,3.94437 -1.38627,24.26641 -1.43213,33.75726 -0.0214,4.42478 -0.41385,7.52875 -0.88509,7 -0.46567,-0.5225 -2.26573,-5.86257 -4.00015,-11.86681 -1.73441,-6.00425 -3.4152,-11.17854 -3.73509,-11.49843 -0.31989,-0.31989 -1.10732,0.13097 -1.74985,1.0019 -0.64253,0.87094 -5.6403,7.05773 -11.10615,13.74843 L 966.62418,494 h -7.41088 c -7.06652,0 -7.5531,0.15102 -10.47144,3.25 -1.68331,1.7875 -7.22522,9.55526 -12.31536,17.26168 -10.5512,15.97442 -15.42812,21.85104 -22.35153,26.93329 C 908.76781,545.34078 898,550.48764 898,549.12857 Z m 185.5742,-278.02772 c 0.3502,-9.40547 0.4242,-17.10085 0.1646,-17.10085 -0.2597,0 -14.6308,6.975 -31.9358,15.5 -17.305,8.525 -31.765,15.5 -32.1333,15.5 -0.3684,0 -0.6697,-1.98322 -0.6697,-4.40715 v -4.40714 l 34.75,-24.2694 c 19.1125,-13.34817 37.5765,-26.26446 41.0312,-28.70286 l 6.2811,-4.43347 -0.4751,8.86001 c -0.2614,4.87301 -0.7381,16.51001 -1.0594,25.86001 -0.3213,9.35 -0.8261,18.92549 -1.1216,21.27887 -0.566,4.50681 -0.2298,4.18659 -11.6874,11.13104 l -3.7812,2.29179 z"
       />
  </symbol>
      <use xlink:href="#logoInverted" fill="#FF29B8"/>
</svg>
